<svg xmlns="http://www.w3.org/2000/svg" viewBox="0 0 1280 1024"><style type="text/css">  
	.st0{clip-path:url(#SVGID_2_);}
	.st1{fill:none;stroke:#CA00FF;stroke-width:0.9459;stroke-linecap:round;stroke-miterlimit:1;}
	.st2{fill:none;stroke:#00F3FF;stroke-width:0.9459;stroke-linecap:round;stroke-miterlimit:1;}
	.st3{fill:none;stroke:#00F1FF;stroke-width:0.9459;stroke-linecap:round;stroke-miterlimit:1;}
	.st4{fill:none;stroke:#00EFFF;stroke-width:0.9459;stroke-linecap:round;stroke-miterlimit:1;}
	.st5{fill:none;stroke:#00EEFF;stroke-width:0.9459;stroke-linecap:round;stroke-miterlimit:1;}
	.st6{fill:none;stroke:#00ECFF;stroke-width:0.9459;stroke-linecap:round;stroke-miterlimit:1;}
	.st7{fill:none;stroke:#00EAFF;stroke-width:0.9459;stroke-linecap:round;stroke-miterlimit:1;}
	.st8{fill:none;stroke:#00E7FF;stroke-width:0.9459;stroke-linecap:round;stroke-miterlimit:1;}
	.st9{fill:none;stroke:#00E5FF;stroke-width:0.9459;stroke-linecap:round;stroke-miterlimit:1;}
	.st10{fill:none;stroke:#00E3FF;stroke-width:0.9459;stroke-linecap:round;stroke-miterlimit:1;}
	.st11{fill:none;stroke:#00E1FF;stroke-width:0.9459;stroke-linecap:round;stroke-miterlimit:1;}
	.st12{fill:none;stroke:#00DFFF;stroke-width:0.9459;stroke-linecap:round;stroke-miterlimit:1;}
	.st13{fill:none;stroke:#00DDFF;stroke-width:0.9459;stroke-linecap:round;stroke-miterlimit:1;}
	.st14{fill:none;stroke:#00DBFF;stroke-width:0.9459;stroke-linecap:round;stroke-miterlimit:1;}
	.st15{fill:none;stroke:#00D9FF;stroke-width:0.9459;stroke-linecap:round;stroke-miterlimit:1;}
	.st16{fill:none;stroke:#00D7FF;stroke-width:0.9459;stroke-linecap:round;stroke-miterlimit:1;}
	.st17{fill:none;stroke:#00D5FF;stroke-width:0.9459;stroke-linecap:round;stroke-miterlimit:1;}
	.st18{fill:none;stroke:#00D2FF;stroke-width:0.9459;stroke-linecap:round;stroke-miterlimit:1;}
	.st19{fill:none;stroke:#00D0FF;stroke-width:0.9459;stroke-linecap:round;stroke-miterlimit:1;}
	.st20{fill:none;stroke:#00CEFF;stroke-width:0.9459;stroke-linecap:round;stroke-miterlimit:1;}
	.st21{fill:none;stroke:#00CCFF;stroke-width:0.9459;stroke-linecap:round;stroke-miterlimit:1;}
	.st22{fill:none;stroke:#00CAFF;stroke-width:0.9459;stroke-linecap:round;stroke-miterlimit:1;}
	.st23{fill:none;stroke:#00C8FF;stroke-width:0.9459;stroke-linecap:round;stroke-miterlimit:1;}
	.st24{fill:none;stroke:#00C6FF;stroke-width:0.9459;stroke-linecap:round;stroke-miterlimit:1;}
	.st25{fill:none;stroke:#00C4FF;stroke-width:0.9459;stroke-linecap:round;stroke-miterlimit:1;}
	.st26{fill:none;stroke:#00C2FF;stroke-width:0.9459;stroke-linecap:round;stroke-miterlimit:1;}
	.st27{fill:none;stroke:#00C0FF;stroke-width:0.9459;stroke-linecap:round;stroke-miterlimit:1;}
	.st28{fill:none;stroke:#00BDFF;stroke-width:0.9459;stroke-linecap:round;stroke-miterlimit:1;}
	.st29{fill:none;stroke:#00BBFF;stroke-width:0.9459;stroke-linecap:round;stroke-miterlimit:1;}
	.st30{fill:none;stroke:#00B9FF;stroke-width:0.9459;stroke-linecap:round;stroke-miterlimit:1;}
	.st31{fill:none;stroke:#00B7FF;stroke-width:0.9459;stroke-linecap:round;stroke-miterlimit:1;}
	.st32{fill:none;stroke:#00B5FF;stroke-width:0.9459;stroke-linecap:round;stroke-miterlimit:1;}
	.st33{fill:none;stroke:#00B4FF;stroke-width:0.9459;stroke-linecap:round;stroke-miterlimit:1;}
	.st34{fill:none;stroke:#00B2FF;stroke-width:0.9459;stroke-linecap:round;stroke-miterlimit:1;}
	.st35{fill:none;stroke:#00B0FF;stroke-width:0.9459;stroke-linecap:round;stroke-miterlimit:1;}
	.st36{fill:none;stroke:#00AEFF;stroke-width:0.9459;stroke-linecap:round;stroke-miterlimit:1;}
	.st37{fill:none;stroke:#05ACFF;stroke-width:0.9459;stroke-linecap:round;stroke-miterlimit:1;}
	.st38{fill:none;stroke:#0DA9FF;stroke-width:0.9459;stroke-linecap:round;stroke-miterlimit:1;}
	.st39{fill:none;stroke:#16A7FF;stroke-width:0.9459;stroke-linecap:round;stroke-miterlimit:1;}
	.st40{fill:none;stroke:#1DA5FF;stroke-width:0.9459;stroke-linecap:round;stroke-miterlimit:1;}
	.st41{fill:none;stroke:#22A2FF;stroke-width:0.9459;stroke-linecap:round;stroke-miterlimit:1;}
	.st42{fill:none;stroke:#27A0FF;stroke-width:0.9459;stroke-linecap:round;stroke-miterlimit:1;}
	.st43{fill:none;stroke:#2B9EFF;stroke-width:0.9459;stroke-linecap:round;stroke-miterlimit:1;}
	.st44{fill:none;stroke:#2B9CFF;stroke-width:0.9459;stroke-linecap:round;stroke-miterlimit:1;}
	.st45{fill:none;stroke:#2F9AFF;stroke-width:0.9459;stroke-linecap:round;stroke-miterlimit:1;}
	.st46{fill:none;stroke:#3298FF;stroke-width:0.9459;stroke-linecap:round;stroke-miterlimit:1;}
	.st47{fill:none;stroke:#3596FF;stroke-width:0.9459;stroke-linecap:round;stroke-miterlimit:1;}
	.st48{fill:none;stroke:#3993FF;stroke-width:0.9459;stroke-linecap:round;stroke-miterlimit:1;}
	.st49{fill:none;stroke:#3B91FF;stroke-width:0.9459;stroke-linecap:round;stroke-miterlimit:1;}
	.st50{fill:none;stroke:#3B8FFF;stroke-width:0.9459;stroke-linecap:round;stroke-miterlimit:1;}
	.st51{fill:none;stroke:#3E8DFF;stroke-width:0.9459;stroke-linecap:round;stroke-miterlimit:1;}
	.st52{fill:none;stroke:#408BFF;stroke-width:0.9459;stroke-linecap:round;stroke-miterlimit:1;}
	.st53{fill:none;stroke:#4289FF;stroke-width:0.9459;stroke-linecap:round;stroke-miterlimit:1;}
	.st54{fill:none;stroke:#4887FF;stroke-width:0.9459;stroke-linecap:round;stroke-miterlimit:1;}
	.st55{fill:none;stroke:#4D86FF;stroke-width:0.9459;stroke-linecap:round;stroke-miterlimit:1;}
	.st56{fill:none;stroke:#5284FF;stroke-width:0.9459;stroke-linecap:round;stroke-miterlimit:1;}
	.st57{fill:none;stroke:#5783FF;stroke-width:0.9459;stroke-linecap:round;stroke-miterlimit:1;}
	.st58{fill:none;stroke:#5B81FD;stroke-width:0.9459;stroke-linecap:round;stroke-miterlimit:1;}
	.st59{fill:none;stroke:#6080FD;stroke-width:0.9459;stroke-linecap:round;stroke-miterlimit:1;}
	.st60{fill:none;stroke:#647FFC;stroke-width:0.9459;stroke-linecap:round;stroke-miterlimit:1;}
	.st61{fill:none;stroke:#687DFC;stroke-width:0.9459;stroke-linecap:round;stroke-miterlimit:1;}
	.st62{fill:none;stroke:#6C7BFB;stroke-width:0.9459;stroke-linecap:round;stroke-miterlimit:1;}
	.st63{fill:none;stroke:#707AFB;stroke-width:0.9459;stroke-linecap:round;stroke-miterlimit:1;}
	.st64{fill:none;stroke:#7378FA;stroke-width:0.9459;stroke-linecap:round;stroke-miterlimit:1;}
	.st65{fill:none;stroke:#7777FA;stroke-width:0.9459;stroke-linecap:round;stroke-miterlimit:1;}
	.st66{fill:none;stroke:#7A75F9;stroke-width:0.9459;stroke-linecap:round;stroke-miterlimit:1;}
	.st67{fill:none;stroke:#7E73F9;stroke-width:0.9459;stroke-linecap:round;stroke-miterlimit:1;}
	.st68{fill:none;stroke:#8072F8;stroke-width:0.9459;stroke-linecap:round;stroke-miterlimit:1;}
	.st69{fill:none;stroke:#8470F8;stroke-width:0.9459;stroke-linecap:round;stroke-miterlimit:1;}
	.st70{fill:none;stroke:#876DF7;stroke-width:0.9459;stroke-linecap:round;stroke-miterlimit:1;}
	.st71{fill:none;stroke:#8A6CF7;stroke-width:0.9459;stroke-linecap:round;stroke-miterlimit:1;}
	.st72{fill:none;stroke:#8D6AF6;stroke-width:0.9459;stroke-linecap:round;stroke-miterlimit:1;}
	.st73{fill:none;stroke:#9069F6;stroke-width:0.9459;stroke-linecap:round;stroke-miterlimit:1;}
	.st74{fill:none;stroke:#9367F5;stroke-width:0.9459;stroke-linecap:round;stroke-miterlimit:1;}
	.st75{fill:none;stroke:#9665F4;stroke-width:0.9459;stroke-linecap:round;stroke-miterlimit:1;}
	.st76{fill:none;stroke:#9964F4;stroke-width:0.9459;stroke-linecap:round;stroke-miterlimit:1;}
	.st77{fill:none;stroke:#9C62F3;stroke-width:0.9459;stroke-linecap:round;stroke-miterlimit:1;}
	.st78{fill:none;stroke:#9F60F3;stroke-width:0.9459;stroke-linecap:round;stroke-miterlimit:1;}
	.st79{fill:none;stroke:#A25FF2;stroke-width:0.9459;stroke-linecap:round;stroke-miterlimit:1;}
	.st80{fill:none;stroke:#A55DF2;stroke-width:0.9459;stroke-linecap:round;stroke-miterlimit:1;}
	.st81{fill:none;stroke:#A75CF1;stroke-width:0.9459;stroke-linecap:round;stroke-miterlimit:1;}
	.st82{fill:none;stroke:#AA5AF1;stroke-width:0.9459;stroke-linecap:round;stroke-miterlimit:1;}
	.st83{fill:none;stroke:#AD57F0;stroke-width:0.9459;stroke-linecap:round;stroke-miterlimit:1;}
	.st84{fill:none;stroke:#B156F1;stroke-width:0.9459;stroke-linecap:round;stroke-miterlimit:1;}
	.st85{fill:none;stroke:#B454F0;stroke-width:0.9459;stroke-linecap:round;stroke-miterlimit:1;}
	.st86{fill:none;stroke:#B652F0;stroke-width:0.9459;stroke-linecap:round;stroke-miterlimit:1;}
	.st87{fill:none;stroke:#B951EF;stroke-width:0.9459;stroke-linecap:round;stroke-miterlimit:1;}
	.st88{fill:none;stroke:#BB4FEF;stroke-width:0.9459;stroke-linecap:round;stroke-miterlimit:1;}
	.st89{fill:none;stroke:#BE4EEE;stroke-width:0.9459;stroke-linecap:round;stroke-miterlimit:1;}
	.st90{fill:none;stroke:#C14CEE;stroke-width:0.9459;stroke-linecap:round;stroke-miterlimit:1;}
	.st91{fill:none;stroke:#C34AED;stroke-width:0.9459;stroke-linecap:round;stroke-miterlimit:1;}
	.st92{fill:none;stroke:#C649ED;stroke-width:0.9459;stroke-linecap:round;stroke-miterlimit:1;}
	.st93{fill:none;stroke:#C846EC;stroke-width:0.9459;stroke-linecap:round;stroke-miterlimit:1;}
	.st94{fill:none;stroke:#CB44EB;stroke-width:0.9459;stroke-linecap:round;stroke-miterlimit:1;}
	.st95{fill:none;stroke:#CD43EB;stroke-width:0.9459;stroke-linecap:round;stroke-miterlimit:1;}
	.st96{fill:none;stroke:#D041EA;stroke-width:0.9459;stroke-linecap:round;stroke-miterlimit:1;}
	.st97{fill:none;stroke:#D240EA;stroke-width:0.9459;stroke-linecap:round;stroke-miterlimit:1;}
	.st98{fill:none;stroke:#D53EE9;stroke-width:0.9459;stroke-linecap:round;stroke-miterlimit:1;}
	.st99{fill:none;stroke:#D73CE9;stroke-width:0.9459;stroke-linecap:round;stroke-miterlimit:1;}
	.st100{fill:none;stroke:#DA3BE8;stroke-width:0.9459;stroke-linecap:round;stroke-miterlimit:1;}
	.st101{fill:none;stroke:#DC38E8;stroke-width:0.9459;stroke-linecap:round;stroke-miterlimit:1;}
	.st102{fill:none;stroke:#DF36E7;stroke-width:0.9459;stroke-linecap:round;stroke-miterlimit:1;}
	.st103{fill:none;stroke:#E135E7;stroke-width:0.9459;stroke-linecap:round;stroke-miterlimit:1;}
	.st104{fill:none;stroke:#E433E6;stroke-width:0.9459;stroke-linecap:round;stroke-miterlimit:1;}
	.st105{fill:none;stroke:#E632E6;stroke-width:0.9459;stroke-linecap:round;stroke-miterlimit:1;}
	.st106{fill:none;stroke:#E830E5;stroke-width:0.9459;stroke-linecap:round;stroke-miterlimit:1;}
	.st107{fill:none;stroke:#EB2DE5;stroke-width:0.9459;stroke-linecap:round;stroke-miterlimit:1;}
	.st108{fill:none;stroke:#ED2CE4;stroke-width:0.9459;stroke-linecap:round;stroke-miterlimit:1;}
	.st109{fill:none;stroke:#EF2AE4;stroke-width:0.9459;stroke-linecap:round;stroke-miterlimit:1;}
	.st110{fill:none;stroke:#F228E3;stroke-width:0.9459;stroke-linecap:round;stroke-miterlimit:1;}
	.st111{fill:none;stroke:#F427E3;stroke-width:0.9459;stroke-linecap:round;stroke-miterlimit:1;}
	.st112{fill:none;stroke:#F624E2;stroke-width:0.9459;stroke-linecap:round;stroke-miterlimit:1;}
	.st113{fill:none;stroke:#F923E2;stroke-width:0.9459;stroke-linecap:round;stroke-miterlimit:1;}
	.st114{fill:none;stroke:#FB21E1;stroke-width:0.9459;stroke-linecap:round;stroke-miterlimit:1;}
</style><defs><rect x="1" y="224" width="1280" height="551"/></defs><clipPath><use xlink:href="#SVGID_1_"/></clipPath><g class="st0"><path class="st1" d="M1 339.6c0 0 158.6-162.1 320.7 0s392.6 149.4 541.9 0c181.8-181.8 417.4 0 417.4 0"/><path class="st1" d="M1 342.9c0 0 158.5-157.1 321.3 1.7 164.1 160.1 393.2 146.2 542.4-0.8 182.4-178.9 416.3-0.9 416.3-0.9"/><path class="st1" d="M1 346.3c0 0 158.3-152.2 321.9 3.4 166.3 158.2 393.5 142.7 542.9-1.5 182.6-176.4 415.2-1.9 415.2-1.9"/><path class="st1" d="M1 349.6c0 0 158.2-147.3 322.5 5.1 168.4 156.2 394 139.4 543.3-2.3 183.1-173.7 414.2-2.8 414.2-2.8"/><path class="st1" d="M1 353c0 0 158.1-142.3 323.1 6.8 170.6 154.3 394.5 136.1 543.8-3 183.5-171 413.1-3.8 413.1-3.8"/><path class="st1" d="M1 356.3c0 0 158.1-137.4 323.7 8.6 172.8 152.3 395 132.8 544.3-3.8 184-168.3 412-4.7 412-4.7"/><path class="st1" d="M1 359.7c0 0 158.1-132.5 324.3 10.3 175 150.4 395.5 129.5 544.8-4.6 184.5-165.6 411-5.7 411-5.7"/><path class="st1" d="M1 363c0 0 158.1-127.7 324.9 12 177.3 148.5 396 126.2 545.2-5.3C1056 206.7 1281 363 1281 363"/><path class="st1" d="M1 366.4c0 0 158.1-122.8 325.5 13.7C506 526.6 722.9 502.9 872.2 374c185.4-160.3 408.8-7.6 408.8-7.6"/><path class="st1" d="M1 369.7c0 0 158.2-118 326.1 15.4 181.9 144.6 397 119.6 546.2-6.9 185.9-157.6 407.8-8.5 407.8-8.5"/><path class="st1" d="M1 373.1c0 0 158.4-113.1 326.6 17.1 184.3 142.6 397.5 116.3 546.6-7.6 186.4-154.9 406.7-9.5 406.7-9.5"/><path class="st1" d="M1 376.4c0 0 158.5-108.3 327.2 18.8 186.6 140.7 398.1 113 547.1-8.4 186.9-152.2 405.6-10.4 405.6-10.4"/><path class="st1" d="M1 379.8c0 0 158.7-103.5 327.8 20.5C517.9 539 727.4 510 876.4 391.1c187.4-149.5 404.6-11.4 404.6-11.4"/><path class="st1" d="M1 383.1c0 0 158.9-98.8 328.4 22.3 191.5 136.7 399.1 106.4 548.1-9.9 187.9-146.8 403.5-12.3 403.5-12.3"/><path class="st1" d="M1 386.4c0 0 159.1-94 329 24 194 134.7 399.7 103.1 548.5-10.7C1067 255.7 1281 386.4 1281 386.4"/><path class="st1" d="M1 389.8c0 0 159.4-89.3 329.6 25.7 196.5 132.7 400.3 99.8 549-11.4 189-141.3 401.4-14.2 401.4-14.2"/><path class="st1" d="M1 393.1c0 0 159.7-84.6 330.2 27.4 199 130.7 400.8 96.5 549.5-12.2 189.5-138.6 400.3-15.2 400.3-15.2"/><path class="st1" d="M1 396.5c0 0 160.1-79.9 330.8 29.1 201.5 128.7 401.4 93.3 549.9-13 190.1-135.9 399.2-16.1 399.2-16.1"/><path class="st1" d="M1 399.8c0 0 160.4-75.3 331.4 30.8 204.1 126.6 402 90 550.4-13.7 190.6-133.2 398.2-17.1 398.2-17.1"/><path class="st1" d="M1 403.2c0 0 160.8-70.6 332 32.5 206.7 124.5 402.6 86.7 550.9-14.5 191.2-130.5 397.1-18 397.1-18"/><path class="st1" d="M1 406.5c0 0 161.2-66 332.6 34.2C543 563.2 736.8 524.2 885 425.5c191.8-127.7 396-19 396-19"/><path class="st1" d="M1 409.9c0 0 161.6-61.4 333.2 35.9 212 120.3 403.8 80.2 551.8-16 192.4-125 395-19.9 395-19.9"/><path class="st1" d="M1 413.2c0 0 162.1-56.9 333.8 37.7 214.7 118.2 404.4 76.9 552.3-16.8 193-122.3 393.9-20.9 393.9-20.9"/><path class="st1" d="M1 416.6c0 0 162.6-52.4 334.4 39.4 217.4 116 405 73.7 552.8-17.5 193.6-119.5 392.8-21.8 392.8-21.8"/><path class="st1" d="M1 419.9c0 0 163-47.8 335 41.1 220.1 113.8 405.6 70.5 553.2-18.3 194.2-116.8 391.8-22.8 391.8-22.8"/><path class="st1" d="M1 423.2c0 0 163.6-43.4 335.6 42.8 222.9 111.6 406.3 67.2 553.7-19.1 194.8-114 390.7-23.7 390.7-23.7"/><path class="st1" d="M1 426.6c0 0 164.1-38.9 336.2 44.5 225.7 109.4 406.9 64 554.2-19.8C1086.8 340 1281 426.6 1281 426.6"/><path class="st1" d="M1 429.9c0 0 164.6-34.5 336.8 46.2 228.5 107.1 407.6 60.8 554.7-20.6 196.1-108.4 388.6-25.6 388.6-25.6"/><path class="st1" d="M1 433.3c0 0 165.2-30.1 337.4 47.9 231.3 104.8 408.2 57.6 555.1-21.4 196.7-105.7 387.5-26.6 387.5-26.6"/><path class="st1" d="M1 436.6c0 0 165.8-25.7 338 49.6 234.1 102.4 408.9 54.4 555.6-22.1 197.4-102.9 386.4-27.5 386.4-27.5"/><path class="st1" d="M1 440c0 0 166.3-21.4 338.6 51.3 236.9 100.1 409.5 51.2 556.1-22.9 198-100 385.4-28.5 385.4-28.5"/><path class="st1" d="M1 443.3c0 0 166.9-17.1 339.1 53.1 239.8 97.6 410.2 48 556.6-23.6 198.7-97.2 384.3-29.4 384.3-29.4"/><path class="st1" d="M1 446.7c0 0 167.6-12.8 339.7 54.8 242.7 95.2 410.9 44.8 557-24.4 199.4-94.4 383.2-30.4 383.2-30.4"/><path class="st1" d="M1 450c0 0 168.2-8.5 340.3 56.5 245.6 92.7 411.5 41.6 557.5-25.2C1098.9 389.8 1281 450 1281 450"/><path class="st1" d="M1 453.4c0 0 168.8-4.3 340.9 58.2 248.5 90.1 412.2 38.5 558-25.9 200.7-88.7 381.1-32.3 381.1-32.3"/><path class="st1" d="M1 456.7c0 0 169.4 0 341.5 59.9 251.4 87.6 412.9 35.3 558.4-26.7 201.4-85.8 380-33.2 380-33.2"/><path class="st1" d="M1 460c0 0 170.1 4.1 342.1 61.6 254.3 84.9 413.6 32.2 558.9-27.5 202.1-82.9 379-34.2 379-34.2"/><path class="st1" d="M1 463.4c0 0 170.7 8.3 342.7 63.3 257.2 82.3 414.3 29 559.4-28.2 202.8-80 377.9-35.1 377.9-35.1"/><path class="st1" d="M1 466.7c0 0 171.3 12.4 343.3 65 260.2 79.6 415 25.9 559.9-29 203.5-77.1 376.8-36.1 376.8-36.1"/><path class="st1" d="M1 470.1c0 0 172 16.6 343.9 66.7 263.1 76.8 415.7 22.8 560.3-29.7 204.3-74.2 375.8-37 375.8-37"/><path class="st1" d="M1 473.4c0 0 172.6 20.6 344.5 68.5 266 74 416.4 19.7 560.8-30.5 205-71.3 374.7-38 374.7-38"/><path class="st1" d="M1 476.8c0 0 173.3 24.7 345.1 70.2 269 71.2 417.1 16.6 561.3-31.3 205.7-68.3 373.6-38.9 373.6-38.9"/><path class="st1" d="M1 480.1c0 0 173.9 28.8 345.7 71.9 271.9 68.3 417.8 13.5 561.7-32 206.4-65.3 372.6-39.9 372.6-39.9"/><path class="st1" d="M1 483.5c0 0 174.5 32.8 346.3 73.6 274.9 65.3 418.5 10.5 562.2-32.8 207.1-62.4 371.5-40.8 371.5-40.8"/><path class="st1" d="M1 486.8c0 0 175.2 36.8 346.9 75.3 277.8 62.4 419.2 7.4 562.7-33.6 207.9-59.4 370.4-41.8 370.4-41.8"/><path class="st1" d="M1 490.2c0 0 175.8 40.7 347.5 77 280.8 59.3 420 4.4 563.2-34.3 208.6-56.3 369.4-42.7 369.4-42.7"/><path class="st1" d="M1 493.5c0 0 176.4 44.7 348.1 78.7 283.7 56.3 420.7 1.3 563.6-35.1 209.3-53.3 368.3-43.7 368.3-43.7"/><path class="st1" d="M1 496.8c0 0 177 48.6 348.7 80.4 286.6 53.1 421.4-1.7 564.1-35.8 210-50.2 367.2-44.6 367.2-44.6"/><path class="st1" d="M1 500.2c0 0 177.7 52.5 349.3 82.2 289.6 50 422.1-4.7 564.6-36.6 210.8-47.2 366.2-45.6 366.2-45.6"/><path class="st1" d="M1 503.5c0 0 178.3 56.4 349.9 83.9 292.5 46.7 422.8-7.7 565-37.4 211.5-44.1 365.1-46.5 365.1-46.5"/><path class="st1" d="M1 506.9c0 0 178.8 60.3 350.5 85.6 295.4 43.5 423.5-10.7 565.5-38.1 212.2-41 364-47.4 364-47.4"/><path class="st1" d="M1 510.2c0 0 179.4 64.2 351.1 87.3 298.3 40.2 424.2-13.7 566-38.9 212.9-37.8 363-48.4 363-48.4"/><path class="st1" d="M1 513.6c0 0 180 68 351.7 89 301.2 36.8 424.9-16.7 566.5-39.7 213.6-34.7 361.9-49.3 361.9-49.3"/><path class="st1" d="M1 516.9c0 0 180.5 71.8 352.2 90.7 304 33.4 425.6-19.6 566.9-40.4 214.3-31.5 360.8-50.3 360.8-50.3"/><path class="st1" d="M1 520.3c0 0 181.1 75.6 352.8 92.4 306.9 30 426.2-22.6 567.4-41.2 215.1-28.3 359.7-51.2 359.7-51.2"/><path class="st1" d="M1 523.6c0 0 181.6 79.4 353.4 94.1 309.7 26.5 426.9-25.5 567.9-41.9 215.7-25.1 358.7-52.2 358.7-52.2"/><path class="st1" d="M1 527c0 0 182.1 83.2 354 95.8 312.5 23 427.6-28.5 568.3-42.7C1139.8 558.2 1281 527 1281 527"/><path class="st1" d="M1 530.3c0 0 182.6 87 354.6 97.6 315.3 19.4 428.3-31.4 568.8-43.5 217.1-18.7 356.5-54.1 356.5-54.1"/><path class="st1" d="M1 533.6c0 0 183.1 90.7 355.2 99.3 318.1 15.8 428.9-34.3 569.3-44.2 217.8-15.4 355.5-55 355.5-55"/><path class="st1" d="M1 537c0 0 183.6 94.5 355.8 101 320.9 12.1 429.6-37.2 569.8-45 218.4-12.1 354.4-56 354.4-56"/><path class="st1" d="M1 540.3c0 0 184.1 98.2 356.4 102.7 323.6 8.5 430.3-39.8 570.2-45.8 219.1-8.4 353.3-56.9 353.3-56.9"/><path class="st1" d="M1 543.7c0 0 184.5 101.9 357 104.4 326.3 4.7 430.9-43 570.7-46.5 219.7-5.5 352.3-57.9 352.3-57.9"/><path class="st2" d="M1 442.5c0 0 231.9-38.3 295 0 336.1 204.1 308.8-394.1 567.6 0 122.3 186.2 417.4 0 417.4 0"/><path class="st3" d="M1 446.5c0 0 229.1-42 295-2 335.4 203.5 307.6-384.8 566.6 0 123.4 183.3 418.4 2.1 418.4 2.1"/><path class="st4" d="M1 450.5c0 0 226.3-45.7 295-4 334.6 203 306.6-375.6 565.6-0.1 124.4 180.4 419.3 4.1 419.3 4.1"/><path class="st5" d="M1 454.5c0 0 223.5-49.4 295.1-6.1 333.8 202.5 305.6-366.4 564.6-0.1 125.5 177.5 420.3 6.2 420.3 6.2"/><path class="st6" d="M1 458.5c0 0 220.7-53.1 295.1-8.1 333 201.9 304.7-357.1 563.6-0.1 126.7 174.7 421.3 8.2 421.3 8.2"/><path class="st7" d="M1 462.5c0 0 217.8-56.8 295.1-10.1 332.3 201.4 304-347.9 562.6-0.2 127.9 171.9 422.3 10.3 422.3 10.3"/><path class="st8" d="M1 466.5c0 0 215-60.5 295.2-12.1 331.5 200.9 303.3-338.7 561.6-0.2 129.1 169.1 423.2 12.3 423.2 12.3"/><path class="st9" d="M1 470.5c0 0 212.2-64.2 295.2-14.1 330.7 200.3 302.7-329.5 560.6-0.2 130.3 166.3 424.2 14.4 424.2 14.4"/><path class="st10" d="M1 474.5c0 0 209.4-67.9 295.2-16.1 329.9 199.8 302.2-320.3 559.6-0.3 131.6 163.6 425.2 16.4 425.2 16.4"/><path class="st11" d="M1 478.5c0 0 206.6-71.6 295.3-18.2 329.2 199.2 301.8-311.1 558.6-0.3C987.8 621 1281 478.5 1281 478.5"/><path class="st12" d="M1 482.5c0 0 203.7-75.3 295.3-20.2 328.4 198.7 301.5-302 557.6-0.3 134.3 158.2 427.1 20.5 427.1 20.5"/><path class="st13" d="M1 486.5c0 0 200.9-79 295.3-22.2C624 662.5 597.7 171.4 852.9 464c135.7 155.5 428.1 22.6 428.1 22.6"/><path class="st14" d="M1 490.5c0 0 198.1-82.7 295.4-24.2 326.8 197.6 301.3-283.8 555.5-0.4 137.1 152.9 429.1 24.6 429.1 24.6"/><path class="st15" d="M1 494.5c0 0 195.3-86.4 295.4-26.2 326.1 197.1 301.4-274.8 554.5-0.4 138.6 150.2 430.1 26.7 430.1 26.7"/><path class="st16" d="M1 498.5c0 0 192.5-90.1 295.4-28.2C621.7 666.8 598 204.5 850 469.8c140.2 147.6 431 28.7 431 28.7"/><path class="st17" d="M1 502.5c0 0 189.7-93.8 295.5-30.3 324.5 196 301.9-256.8 552.5-0.5 141.8 145 432 30.8 432 30.8"/><path class="st18" d="M1 506.5c0 0 186.8-97.5 295.5-32.3 323.8 195.5 302.3-247.9 551.5-0.5 143.4 142.4 433 32.8 433 32.8"/><path class="st19" d="M1 510.5c0 0 184-101.2 295.5-34.3 323 194.9 302.9-239.1 550.5-0.6 145.1 139.8 434 34.9 434 34.9"/><path class="st20" d="M1 514.5c0 0 181.2-104.9 295.6-36.3 322.2 194.4 303.6-230.3 549.5-0.6C993 614.8 1281 514.5 1281 514.5"/><path class="st21" d="M1 518.5c0 0 178.4-108.6 295.6-38.3C618 674.1 601 258.6 845.1 479.6c148.7 134.6 435.9 39 435.9 39"/><path class="st22" d="M1 522.5c0 0 175.6-112.3 295.6-40.4 320.7 193.3 305.3-212.9 547.5-0.7 150.6 132 436.9 41 436.9 41"/><path class="st23" d="M1 526.5c0 0 172.7-116 295.7-42.4 319.9 192.8 306.4-204.4 546.5-0.7 152.5 129.4 437.9 43.1 437.9 43.1"/><path class="st24" d="M1 530.5c0 0 169.9-119.7 295.7-44.4 319.1 192.2 307.6-195.9 545.5-0.7 154.5 126.7 438.8 45.1 438.8 45.1"/><path class="st25" d="M1 534.5c0 0 167.1-123.4 295.7-46.4 318.3 191.7 308.9-187.5 544.4-0.8 156.5 124.1 439.8 47.2 439.8 47.2"/><path class="st26" d="M1 538.5c0 0 164.3-127.1 295.8-48.4 317.6 191.2 310.4-179.2 543.4-0.8 158.6 121.4 440.8 49.2 440.8 49.2"/><path class="st27" d="M1 542.5c0 0 161.5-130.8 295.8-50.4 316.8 190.6 311.9-171 542.4-0.8C1000 610 1281 542.5 1281 542.5"/><path class="st28" d="M1 546.5c0 0 158.7-134.5 295.8-52.5 316 190.1 313.6-162.9 541.4-0.9 163 116 442.7 53.3 442.7 53.3"/><path class="st29" d="M1 550.5c0 0 155.8-138.2 295.9-54.5 315.2 189.6 315.4-154.9 540.4-0.9 165.3 113.2 443.7 55.4 443.7 55.4"/><path class="st30" d="M1 554.5c0 0 153-141.9 295.9-56.5 314.5 189 317.3-147 539.4-0.9C1004 607.4 1281 554.5 1281 554.5"/><path class="st31" d="M1 558.5c0 0 150.2-145.6 295.9-58.5 313.7 188.5 319.3-139.3 538.4-1 170.1 107.4 445.7 59.5 445.7 59.5"/><path class="st32" d="M1 562.5c0 0 147.4-149.3 296-60.5 312.9 187.9 321.4-131.6 537.4-1C1007 605.4 1281 562.5 1281 562.5"/><path class="st33" d="M1 566.5c0 0 144.6-153 296-62.5 312.2 187.4 323.6-124.1 536.4-1 175.2 101.3 447.6 63.6 447.6 63.6"/><path class="st34" d="M1 570.6c0 0 141.7-156.7 296-64.6 311.4 186.9 325.9-116.7 535.4-1.1 177.8 98.2 448.6 65.6 448.6 65.6"/><path class="st35" d="M1 574.6c0 0 138.9-160.4 296.1-66.6 310.6 186.3 328.2-109.5 534.4-1.1 180.5 94.9 449.6 67.7 449.6 67.7"/><path class="st36" d="M1 578.6c0 0 136.1-164.1 296.1-68.6 309.8 185.8 330.6-102.4 533.3-1.1 183.2 91.5 450.5 69.7 450.5 69.7"/><path class="st37" d="M1 582.6c0 0 133.3-167.8 296.1-70.6 309.1 185.2 333.1-95.4 532.3-1.2 186 88 451.5 71.8 451.5 71.8"/><path class="st38" d="M1 586.6c0 0 130.5-171.5 296.2-72.6 308.3 184.7 335.6-88.5 531.3-1.2 188.9 84.3 452.5 73.8 452.5 73.8"/><path class="st39" d="M1 590.6c0 0 127.6-175.2 296.2-74.7 307.5 184.2 338.2-81.8 530.3-1.2 191.8 80.4 453.5 75.9 453.5 75.9"/><path class="st40" d="M1 594.6c0 0 124.8-178.9 296.2-76.7C604 701.5 638 442.6 826.6 516.6c194.8 76.4 454.4 77.9 454.4 77.9"/><path class="st41" d="M1 598.6c0 0 122-182.6 296.3-78.7 306 183.1 343.3-68.8 528.3-1.3 197.7 72.2 455.4 80 455.4 80"/><path class="st42" d="M1 602.6c0 0 119.2-186.3 296.3-80.7 305.2 182.6 345.9-62.5 527.3-1.3 200.8 67.7 456.4 82 456.4 82"/><path class="st43" d="M1 606.6c0 0 116.4-190 296.4-82.7 304.4 182 348.5-56.4 526.3-1.4 203.8 63 457.4 84.1 457.4 84.1"/><path class="st44" d="M1 610.6c0 0 113.6-193.7 296.4-84.7 303.6 181.5 351-50.4 525.3-1.4 206.8 58.1 458.3 86.2 458.3 86.2"/><path class="st45" d="M1 614.6c0 0 110.7-197.4 296.4-86.8 302.9 180.9 353.5-44.5 524.3-1.4 209.9 52.9 459.3 88.2 459.3 88.2"/><path class="st46" d="M1 618.6c0 0 107.9-201.1 296.5-88.8 302.1 180.4 355.8-38.8 523.3-1.5 212.9 47.4 460.3 90.3 460.3 90.3"/><path class="st47" d="M1 622.6c0 0 105.1-204.8 296.5-90.8 301.3 179.9 358.1-33.1 522.3-1.5 215.9 41.6 461.3 92.3 461.3 92.3"/><path class="st48" d="M1 626.6c0 0 102.3-208.5 296.5-92.8 300.6 179.3 360.3-27.7 521.2-1.5 218.8 35.5 462.2 94.4 462.2 94.4"/><path class="st49" d="M1 630.6c0 0 99.5-212.2 296.6-94.8 299.8 178.8 362.3-22.3 520.2-1.6 221.6 29.1 463.2 96.4 463.2 96.4"/><path class="st50" d="M1 634.6c0 0 96.6-215.9 296.6-96.8 299 178.3 364.2-17 519.2-1.6 224.3 22.3 464.2 98.5 464.2 98.5"/><path class="st51" d="M1 638.6c0 0 93.8-219.6 296.6-98.9 298.2 177.7 365.9-11.8 518.2-1.6 226.9 15.2 465.2 100.5 465.2 100.5"/><path class="st52" d="M1 642.6c0 0 91-223.3 296.7-100.9 297.5 177.2 367.4-6.7 517.2-1.7 229.4 7.7 466.1 102.6 466.1 102.6"/><path class="st53" d="M1 646.6c0 0 88.2-227 296.7-102.9 296.7 176.6 368.7-1.7 516.2-1.7 231.6 0 467.1 104.6 467.1 104.6"/><path class="st2" d="M1312.7 603.8c0 0-129.4 156.2-361.4 3.4 -409.3-269.6-488.5 430.3-713.8-3.4 -128-246.4-520.2 0-520.2 0"/><path class="st3" d="M1312.7 598.8c0 0-129 158.7-361.6 5.8 -408.5-268.7-485.4 420.6-712.5-3.3 -129.8-242.3-521.5-2.6-521.5-2.6"/><path class="st4" d="M1312.7 593.8c0 0-128.6 161.2-361.7 8.3 -407.8-267.7-482.5 410.9-711.1-3.2 -131.6-238.3-522.7-5.1-522.7-5.1"/><path class="st5" d="M1312.7 588.8c0 0-128.2 163.7-361.9 10.7 -407-266.7-479.6 401.1-709.7-3 -133.4-234.3-523.9-7.7-523.9-7.7"/><path class="st6" d="M1312.7 583.8c0 0-127.8 166.2-362 13.2 -406.2-265.8-476.8 391.4-708.3-2.9 -135.2-230.3-525.1-10.2-525.1-10.2"/><path class="st7" d="M1312.7 578.8c0 0-127.5 168.7-362.2 15.6C545 329.7 476.4 976.1 243.5 591.6c-137.1-226.4-526.3-12.8-526.3-12.8"/><path class="st8" d="M1312.7 573.9c0 0-127.1 171.1-362.4 18.1 -404.7-263.8-471.5 371.8-705.6-2.7 -139.1-222.5-527.5-15.3-527.5-15.3"/><path class="st9" d="M1312.7 568.9c0 0-126.7 173.6-362.5 20.5 -403.9-262.9-469 362-704.2-2.6 -141-218.7-528.8-17.9-528.8-17.9"/><path class="st10" d="M1312.7 563.9c0 0-126.3 176.1-362.7 23C546.9 325 483.4 939.1 247.2 584.3c-143.1-214.9-530-20.5-530-20.5"/><path class="st11" d="M1312.7 558.9c0 0-125.9 178.6-362.9 25.4 -402.3-260.9-464.3 342.4-701.4-2.4 -145.2-211.1-531.2-23-531.2-23"/><path class="st12" d="M1312.7 553.9c0 0-125.5 181.1-363 27.9 -401.6-259.9-462.1 332.6-700-2.3 -147.3-207.3-532.4-25.6-532.4-25.6"/><path class="st13" d="M1312.7 548.9c0 0-125.2 183.6-363.2 30.3 -400.8-259-460.1 322.8-698.6-2.2 -149.5-203.6-533.6-28.1-533.6-28.1"/><path class="st14" d="M1312.7 543.9c0 0-124.8 186.1-363.4 32.8 -400-258-458.2 313-697.3-2.1 -151.7-199.9-534.8-30.7-534.8-30.7"/><path class="st15" d="M1312.7 538.9c0 0-124.4 188.5-363.5 35.2 -399.2-257-456.4 303.3-695.9-2 -154-196.3-536-33.2-536-33.2"/><path class="st16" d="M1312.7 534c0 0-124 191-363.7 37.7 -398.5-256.1-454.7 293.6-694.5-1.9C98.1 377.1-282.8 534-282.8 534"/><path class="st17" d="M1312.7 529c0 0-123.6 193.5-363.9 40.1C551.1 314 495.7 852.9 255.7 567.3 96.9 378.3-282.8 529-282.8 529"/><path class="st18" d="M1312.7 524c0 0-123.3 196-364 42.5 -396.9-254.1-451.8 274.2-691.7-1.6C95.6 379.4-282.8 524-282.8 524"/><path class="st19" d="M1312.7 519c0 0-122.9 198.5-364.2 45C552.4 310.8 498 828.6 258.1 562.5 94.2 380.6-282.8 519-282.8 519"/><path class="st20" d="M1312.7 514c0 0-122.5 201-364.4 47.4 -395.4-252.2-449.4 255-689-1.4 -166.6-178.3-542.1-46-542.1-46"/><path class="st21" d="M1312.7 509c0 0-122.1 203.5-364.5 49.9 -394.6-251.2-448.4 245.5-687.6-1.3C91.2 382.9-282.8 509-282.8 509"/><path class="st22" d="M1312.7 504c0 0-121.7 205.9-364.7 52.3 -393.8-250.2-447.6 236-686.2-1.2C89.6 384-282.8 504-282.8 504"/><path class="st23" d="M1312.7 499c0 0-121.4 208.4-364.9 54.8 -393-249.3-447 226.7-684.8-1.1C88 385.2-282.8 499-282.8 499"/><path class="st24" d="M1312.7 494.1c0 0-121 210.9-365 57.2 -392.3-248.3-446.4 217.3-683.5-1 -178-164-547-56.2-547-56.2"/><path class="st25" d="M1312.7 489.1c0 0-120.6 213.4-365.2 59.7 -391.5-247.3-446 208.1-682.1-0.9 -181.1-160.3-548.2-58.8-548.2-58.8"/><path class="st26" d="M1312.7 484.1c0 0-120.2 215.9-365.4 62.1 -390.7-246.4-445.8 199-680.7-0.8 -184.2-156.7-549.4-61.4-549.4-61.4"/><path class="st27" d="M1312.7 479.1c0 0-119.8 218.4-365.5 64.6 -389.9-245.4-445.7 190-679.3-0.7 -187.5-153-550.6-63.9-550.6-63.9"/><path class="st28" d="M1312.7 474.1c0 0-119.4 220.9-365.7 67 -389.2-244.4-445.8 181.1-677.9-0.6 -190.8-149.2-551.8-66.5-551.8-66.5"/><path class="st29" d="M1312.7 469.1c0 0-119.1 223.3-365.8 69.5 -388.4-243.5-445.9 172.2-676.6-0.5 -194.2-145.4-553.1-69-553.1-69"/><path class="st30" d="M1312.7 464.1c0 0-118.7 225.8-366 71.9 -387.6-242.5-446.2 163.6-675.2-0.3 -197.7-141.5-554.3-71.6-554.3-71.6"/><path class="st31" d="M1312.7 459.1c0 0-118.3 228.3-366.2 74.4 -386.8-241.5-446.6 155-673.8-0.2 -201.3-137.5-555.5-74.1-555.5-74.1"/><path class="st32" d="M1312.7 454.2c0 0-117.9 230.8-366.3 76.8 -386.1-240.5-447.1 146.5-672.4-0.1 -205-133.4-556.7-76.7-556.7-76.7"/><path class="st33" d="M1312.7 449.2c0 0-117.5 233.3-366.5 79.3 -385.3-239.6-447.7 138.2-671 0 -208.7-129.3-557.9-79.3-557.9-79.3"/><path class="st34" d="M1312.7 444.2c0 0-117.2 235.8-366.7 81.7C561.5 287.3 497.6 656 276.4 526c-212.6-124.9-559.1-81.8-559.1-81.8"/><path class="st35" d="M1312.7 439.2c0 0-116.8 238.2-366.8 84.2 -383.8-237.6-449.2 122.1-668.3 0.2 -216.5-120.5-560.4-84.4-560.4-84.4"/><path class="st36" d="M1312.7 434.2c0 0-116.4 240.7-367 86.6 -383-236.7-450.1 114.2-666.9 0.3 -220.5-115.8-561.6-86.9-561.6-86.9"/><path class="st37" d="M1312.7 429.2c0 0-116 243.2-367.2 89.1 -382.2-235.7-451 106.5-665.5 0.4 -224.6-111-562.8-89.5-562.8-89.5"/><path class="st38" d="M1312.7 424.2c0 0-115.6 245.7-367.3 91.5 -381.4-234.7-451.9 98.9-664.1 0.5 -228.7-106-564-92-564-92"/><path class="st39" d="M1312.7 419.2c0 0-115.3 248.2-367.5 94 -380.7-233.8-452.9 91.5-662.8 0.6C49.6 413-282.8 419.2-282.8 419.2"/><path class="st40" d="M1312.7 414.3c0 0-114.9 250.7-367.7 96.4 -379.9-232.8-453.9 84.2-661.4 0.7C46.6 416-282.8 414.3-282.8 414.3"/><path class="st41" d="M1312.7 409.3c0 0-114.5 253.2-367.8 98.9 -379.1-231.8-454.9 77.1-660 0.8 -241.4-89.8-567.7-99.7-567.7-99.7"/><path class="st42" d="M1312.7 404.3c0 0-114.1 255.6-368 101.3 -378.3-230.8-455.8 70.2-658.6 1C40.5 422.7-282.8 404.3-282.8 404.3"/><path class="st43" d="M1312.7 399.3c0 0-113.7 258.1-368.2 103.8 -377.6-229.9-456.7 63.4-657.2 1.1C37.4 426.5-282.8 399.3-282.8 399.3"/><path class="st44" d="M1312.7 394.3c0 0-113.3 260.6-368.3 106.2 -376.8-228.9-457.6 56.7-655.8 1.2C34.4 430.5-282.8 394.3-282.8 394.3"/><path class="st45" d="M1312.7 389.3c0 0-113 263.1-368.5 108.7 -376-227.9-458.3 50.2-654.5 1.3C31.3 434.8-282.8 389.3-282.8 389.3"/><path class="st46" d="M1312.7 384.3c0 0-112.6 265.6-368.7 111.1 -375.2-227-459 43.8-653.1 1.4C28.4 439.4-282.8 384.3-282.8 384.3"/><path class="st47" d="M1312.7 379.3c0 0-112.2 268.1-368.8 113.6 -374.5-226-459.6 37.6-651.7 1.5C25.5 444.3-282.8 379.3-282.8 379.3"/><path class="st48" d="M1312.7 374.4c0 0-111.8 270.6-369 116 -373.7-225-460 31.4-650.3 1.6C22.7 449.6-282.8 374.4-282.8 374.4"/><path class="st49" d="M1312.7 369.4c0 0-111.4 273-369.1 118.5 -372.9-224.1-460.3 25.4-648.9 1.7C20 455.1-282.8 369.4-282.8 369.4"/><path class="st50" d="M1312.7 364.4c0 0-111.1 275.5-369.3 120.9 -372.1-223.1-460.4 19.5-647.6 1.8C17.4 460.9-282.8 364.4-282.8 364.4"/><path class="st51" d="M1312.7 359.4c0 0-110.7 278-369.5 123.4 -371.4-222.1-460.3 13.6-646.2 1.9C15 466.9-282.8 359.4-282.8 359.4"/><path class="st52" d="M1312.7 354.4c0 0-110.3 280.5-369.6 125.8 -370.6-221.1-460.1 7.8-644.8 2 -285.5-9-581-127.8-581-127.8"/><path class="st53" d="M1312.7 349.4c0 0-109.9 283-369.8 128.3 -369.8-220.2-459.6 2.1-643.4 2.1 -288.7 0-582.2-130.4-582.2-130.4"/><path class="st53" d="M1 442.5c0 0 147.6 140.4 298.7-20.1 356.7-379 194.9-35.3 401.8 7.2 113.6 23.3 514 26.9 579.5 12.9"/><path class="st54" d="M1 445.8c0 0 148.9 138.6 298.6-19.8 358.1-375.9 197.6-33.3 405.1 6 113.7 21.7 511.9 27.6 576.3 13.8"/><path class="st55" d="M1 449.2c0 0 149.7 136.2 298.6-19.4 358-374.2 200.3-31.3 408.3 4.7 113.8 20.1 509.8 28.3 573.1 14.7"/><path class="st56" d="M1 452.5c0 0 150.7 134.1 298.6-19.1 358.7-371.7 203.1-29.9 411.6 3.4 113.9 18.2 507.6 29 569.8 15.7"/><path class="st57" d="M1 455.9c0 0 151.8 132.1 298.5-18.8 359.4-369.3 205.8-28.1 414.8 2.2 114 16.5 505.5 29.7 566.6 16.6"/><path class="st58" d="M1 459.2c0 0 152.8 130 298.5-18.5 360.1-366.9 208.5-26.2 418.1 0.9 114 14.8 503.3 30.4 563.4 17.6"/><path class="st59" d="M1 462.6c0 0 153.9 127.9 298.5-18.1C660.3 80 510.7 420 720.8 444.1 835 457.2 1222 475.2 1281 462.6"/><path class="st60" d="M1 465.9c0 0 155 125.9 298.4-17.8 361.5-362 214-22.6 424.6-1.6 114.2 11.4 499 31.8 557 19.4"/><path class="st61" d="M1 469.3c0 0 156.1 123.8 298.4-17.5 362.2-359.6 216.7-20.8 427.8-2.9 114.3 9.7 496.9 32.5 553.7 20.4"/><path class="st62" d="M1 472.6c0 0 157.2 121.8 298.4-17.1 363-357.2 219.4-18.9 431.1-4.2 114.4 8 494.7 33.2 550.5 21.3"/><path class="st63" d="M1 476c0 0 158.4 119.7 298.4-16.8 363.8-354.7 222.1-17.1 434.3-5.4 114.4 6.3 492.6 33.9 547.3 22.2"/><path class="st64" d="M1 479.3c0 0 159.5 117.7 298.3-16.5 364.6-352.3 224.8-15.2 437.6-6.7 114.5 4.6 490.4 34.6 544.1 23.2"/><path class="st65" d="M1 482.6c0 0 160.6 115.6 298.3-16.2 365.4-349.9 227.4-13.4 440.9-8 114.6 2.9 488.3 35.3 540.9 24.1"/><path class="st66" d="M1 486c0 0 161.8 113.6 298.3-15.8 366.2-347.4 230.1-11.5 444.1-9.2 114.7 1.2 486.1 36.1 537.6 25"/><path class="st67" d="M1 489.3c0 0 163 111.6 298.2-15.5 367.1-345 232.8-13.3 447.4-10.5 114.7 1.5 484 36.8 534.4 26"/><path class="st68" d="M1 492.7c0 0 164.1 109.6 298.2-15.2 367.9-342.5 235.5-7.8 450.6-11.8 114.8-2.1 481.8 37.5 531.2 26.9"/><path class="st69" d="M1 496c0 0 165.3 107.6 298.2-14.8 368.8-340 238.2-5.9 453.9-13 114.9-3.8 479.7 38.2 528 27.9"/><path class="st70" d="M1 499.4c0 0 166.5 105.6 298.1-14.5 369.7-337.6 240.8-4 457.1-14.3 114.9-5.4 477.5 38.9 524.8 28.8"/><path class="st71" d="M1 502.7c0 0 167.7 103.7 298.1-14.2 370.7-335.1 243.5-2.2 460.4-15.6 115-7.1 475.4 39.6 521.5 29.7"/><path class="st72" d="M1 506.1c0 0 169 101.7 298.1-13.8 371.6-332.6 246.2-0.3 463.6-16.8 115-8.8 473.3 40.3 518.3 30.7"/><path class="st73" d="M1 509.4c0 0 170.2 99.7 298-13.5 372.6-330.1 248.9 1.6 466.9-18.1 115.1-10.4 471.1 41 515.1 31.6"/><path class="st74" d="M1 512.8c0 0 171.4 97.8 298-13.2 373.6-327.5 251.5 3.6 470.1-19.4 115.2-12.1 469 41.7 511.9 32.5"/><path class="st75" d="M1 516.1c0 0 172.7 95.8 298-12.9 374.6-325 254.2 5.5 473.4-20.6 115.2-13.7 466.8 42.4 508.7 33.5"/><path class="st76" d="M1 519.4c0 0 174 93.9 297.9-12.5 375.6-322.5 256.9 7.4 476.6-21.9 115.3-15.4 464.7 43.1 505.4 34.4"/><path class="st77" d="M1 522.8c0 0 175.2 92 297.9-12.2 376.7-319.9 259.6 9.3 479.9-23.2 115.4-17 462.5 43.8 502.2 35.3"/><path class="st78" d="M1 526.1c0 0 176.5 90.1 297.9-11.9 377.8-317.3 262.2 11.3 483.1-24.4 115.4-18.6 460.4 44.5 499 36.3"/><path class="st79" d="M1 529.5c0 0 177.8 88.2 297.8-11.5 378.9-314.8 264.9 13.2 486.4-25.7 115.5-20.3 458.2 45.2 495.8 37.2"/><path class="st80" d="M1 532.8c0 0 179.1 86.3 297.8-11.2 380-312.1 267.6 15.1 489.6-27 115.5-21.9 456.1 46 492.6 38.2"/><path class="st81" d="M1 536.2c0 0 180.4 84.4 297.8-10.9 381.1-309.5 270.2 17.1 492.9-28.2 115.6-23.5 453.9 46.7 489.3 39.1"/><path class="st82" d="M1 539.5c0 0 181.8 82.5 297.7-10.5 382.3-306.9 272.9 19.1 496.1-29.5 115.7-25.2 451.8 47.4 486.1 40"/><path class="st83" d="M1 542.9c0 0 183.1 80.7 297.7-10.2 383.5-304.2 275.6 21 499.4-30.8 115.7-26.8 449.6 48.1 482.9 41"/><path class="st84" d="M1 546.2c0 0 184.5 78.8 297.7-9.9 384.8-301.5 278.3 23 502.7-32 115.8-28.4 447.5 48.8 479.7 41.9"/><path class="st85" d="M1 549.6c0 0 185.8 77 297.6-9.6 386-298.8 281 25 505.9-33.3 115.9-30 445.3 49.5 476.5 42.8"/><path class="st86" d="M1 552.9c0 0 187.2 75.1 297.6-9.2 387.3-296 283.6 27 509.2-34.5 115.9-31.6 443.2 50.2 473.2 43.8"/><path class="st87" d="M1 556.2c0 0 188.6 73.3 297.6-8.9 388.6-293.2 286.3 28.9 512.4-35.8 116-33.2 441 50.9 470 44.7"/><path class="st88" d="M1 559.6c0 0 190 71.5 297.5-8.6 390-290.4 289 30.9 515.7-37.1 116.1-34.8 438.9 51.6 466.8 45.7"/><path class="st89" d="M1 562.9c0 0 191.4 69.7 297.5-8.2 391.4-287.5 291.7 32.9 518.9-38.3 116.2-36.4 436.8 52.3 463.6 46.6"/><path class="st90" d="M1 566.3c0 0 192.8 67.9 297.5-7.9 392.8-284.6 294.4 34.9 522.2-39.6 116.2-38 434.6 53 460.4 47.5"/><path class="st91" d="M1 569.6c0 0 194.2 66.2 297.4-7.6 394.2-281.7 297.1 37 525.4-40.9 116.3-39.6 432.5 53.7 457.1 48.5"/><path class="st92" d="M1 573c0 0 195.6 64.4 297.4-7.3 395.7-278.7 299.8 39 528.7-42.1C943.5 482.3 1257.4 578 1281 573"/><path class="st93" d="M1 576.3c0 0 197.1 62.7 297.4-6.9 397.2-275.6 302.5 41 531.9-43.4 116.5-42.8 428.2 55.2 450.7 50.3"/><path class="st94" d="M1 579.7c0 0 198.5 60.9 297.3-6.6 398.8-272.6 305.2 43 535.2-44.7 116.5-44.4 426 55.9 447.5 51.3"/><path class="st95" d="M1 583c0 0 200 59.2 297.3-6.3 400.4-269.4 307.9 45 538.4-45.9 116.6-46 423.9 56.6 444.3 52.2"/><path class="st96" d="M1 586.4c0 0 201.4 57.5 297.3-5.9 402-266.2 310.6 47.1 541.7-47.2 116.7-47.6 421.7 57.3 441 53.1"/><path class="st97" d="M1 589.7c0 0 202.9 55.8 297.2-5.6 403.7-262.9 313.4 49.1 544.9-48.5 116.8-49.2 419.6 58 437.8 54.1"/><path class="st98" d="M1 593.1c0 0 204.4 54.2 297.2-5.3 405.4-259.6 316.1 51.1 548.2-49.7 116.9-50.8 417.4 58.7 434.6 55"/><path class="st99" d="M1 596.4c0 0 205.9 52.5 297.2-4.9 407.1-256.1 318.8 53.2 551.4-51 117-52.4 415.3 59.4 431.4 56"/><path class="st100" d="M1 599.7c0 0 207.4 50.9 297.1-4.6 408.9-252.6 321.5 55.2 554.7-52.3 117.1-54 413.1 60.1 428.2 56.9"/><path class="st101" d="M1 603.1c0 0 208.9 49.2 297.1-4.3 410.7-249 324.3 57.3 557.9-53.5 117.2-55.5 411 60.8 424.9 57.8"/><path class="st102" d="M1 606.4c0 0 210.4 47.6 297.1-4 412.6-245.4 327 59.3 561.2-54.8 117.2-57.1 408.8 61.5 421.7 58.8"/><path class="st103" d="M1 609.8c0 0 211.9 46 297-3.6 414.5-241.6 329.8 61.3 564.5-56.1 117.3-58.7 406.7 62.2 418.5 59.7"/><path class="st104" d="M1 613.1c0 0 213.4 44.4 297-3.3 416.5-237.7 332.5 63.4 567.7-57.3 117.4-60.3 404.5 62.9 415.3 60.6"/><path class="st105" d="M1 616.5c0 0 214.9 42.8 297-3 418.5-233.6 335.2 65.5 571-58.6 117.5-61.9 402.4 63.6 412.1 61.6"/><path class="st106" d="M1 619.8c0 0 216.4 41.3 296.9-2.6 420.6-229.5 338 67.5 574.2-59.9 117.6-63.4 400.3 64.3 408.8 62.5"/><path class="st107" d="M1 623.2c0 0 218 39.8 296.9-2.3 422.7-225.2 340.8 69.6 577.5-61.1 117.7-65 398.1 65.1 405.6 63.4"/><path class="st108" d="M1 626.5c0 0 219.5 38.2 296.9-2 424.9-220.8 343.5 71.6 580.7-62.4 117.9-66.6 396 65.8 402.4 64.4"/><path class="st109" d="M1 629.9c0 0 221 36.7 296.8-1.6 427.1-216.1 346.3 73.7 584-63.7 118-68.2 393.8 66.5 399.2 65.3"/><path class="st110" d="M1 633.2c0 0 222.5 35.2 296.8-1.3 429.4-211.4 349.3 76.2 587.2-64.9 118.2-69.5 391.7 67.2 396 66.3"/><path class="st111" d="M1 636.5c0 0 224.1 33.8 296.8-1 431.7-206.4 352 78.2 590.5-66.2 118.3-71.2 389.5 67.9 392.7 67.2"/><path class="st112" d="M1 639.9c0 0 225.6 32.3 296.8-0.7 434.1-201.2 354.7 80.1 593.7-67.5 118.4-72.8 387.4 68.6 389.5 68.1"/><path class="st113" d="M1 643.2c0 0 227.1 30.9 296.7-0.3 436.5-195.8 357.4 82.1 597-68.7 118.4-74.4 385.2 69.3 386.3 69.1"/><path class="st114" d="M1 646.6c0 0 228.6 29.5 296.7 0 439-190.1 360.1 84 600.2-70 118.5-76 383.1 70 383.1 70"/></g></svg>