<svg xmlns="http://www.w3.org/2000/svg" viewBox="0 0 1280 1024" class="undefined"><style type="text/css" class="undefined">  
	
		.st0{fill:none;stroke:#4289FF;stroke-width:1.0701;stroke-linecap:round;stroke-miterlimit:1;stroke-dasharray:10.7014,0,10.7014,0,10.7014,0;}
	
		.st1{fill:none;stroke:#4986FF;stroke-width:1.0701;stroke-linecap:round;stroke-miterlimit:1;stroke-dasharray:10.7014,0,10.7014,0,10.7014,0;}
	
		.st2{fill:none;stroke:#4D84FF;stroke-width:1.0701;stroke-linecap:round;stroke-miterlimit:1;stroke-dasharray:10.7014,0,10.7014,0,10.7014,0;}
	
		.st3{fill:none;stroke:#5381FF;stroke-width:1.0701;stroke-linecap:round;stroke-miterlimit:1;stroke-dasharray:10.7014,0,10.7014,0,10.7014,0;}
	
		.st4{fill:none;stroke:#567FFF;stroke-width:1.0701;stroke-linecap:round;stroke-miterlimit:1;stroke-dasharray:10.7014,0,10.7014,0,10.7014,0;}
	
		.st5{fill:none;stroke:#5B7DFF;stroke-width:1.0701;stroke-linecap:round;stroke-miterlimit:1;stroke-dasharray:10.7014,0,10.7014,0,10.7014,0;}
	
		.st6{fill:none;stroke:#5E7AFF;stroke-width:1.0701;stroke-linecap:round;stroke-miterlimit:1;stroke-dasharray:10.7014,0,10.7014,0,10.7014,0;}
	
		.st7{fill:none;stroke:#6377FF;stroke-width:1.0701;stroke-linecap:round;stroke-miterlimit:1;stroke-dasharray:10.7014,0,10.7014,0,10.7014,0;}
	
		.st8{fill:none;stroke:#6675FF;stroke-width:1.0701;stroke-linecap:round;stroke-miterlimit:1;stroke-dasharray:10.7014,0,10.7014,0,10.7014,0;}
	
		.st9{fill:none;stroke:#6A72FF;stroke-width:1.0701;stroke-linecap:round;stroke-miterlimit:1;stroke-dasharray:10.7014,0,10.7014,0,10.7014,0;}
	
		.st10{fill:none;stroke:#6D6EFF;stroke-width:1.0701;stroke-linecap:round;stroke-miterlimit:1;stroke-dasharray:10.7014,0,10.7014,0,10.7014,0;}
	
		.st11{fill:none;stroke:#716BFF;stroke-width:1.0701;stroke-linecap:round;stroke-miterlimit:1;stroke-dasharray:10.7014,0,10.7014,0,10.7014,0;}
	
		.st12{fill:none;stroke:#7569FF;stroke-width:1.0701;stroke-linecap:round;stroke-miterlimit:1;stroke-dasharray:10.7014,0,10.7014,0,10.7014,0;}
	
		.st13{fill:none;stroke:#7766FF;stroke-width:1.0701;stroke-linecap:round;stroke-miterlimit:1;stroke-dasharray:10.7014,0,10.7014,0,10.7014,0;}
	
		.st14{fill:none;stroke:#7B63FF;stroke-width:1.0701;stroke-linecap:round;stroke-miterlimit:1;stroke-dasharray:10.7014,0,10.7014,0,10.7014,0;}
	
		.st15{fill:none;stroke:#7D61FF;stroke-width:1.0701;stroke-linecap:round;stroke-miterlimit:1;stroke-dasharray:10.7014,0,10.7014,0,10.7014,0;}
	
		.st16{fill:none;stroke:#805EFF;stroke-width:1.0701;stroke-linecap:round;stroke-miterlimit:1;stroke-dasharray:10.7014,0,10.7014,0,10.7014,0;}
	
		.st17{fill:none;stroke:#825BFF;stroke-width:1.0701;stroke-linecap:round;stroke-miterlimit:1;stroke-dasharray:10.7014,0,10.7014,0,10.7014,0;}
	
		.st18{fill:none;stroke:#8559FF;stroke-width:1.0701;stroke-linecap:round;stroke-miterlimit:1;stroke-dasharray:10.7014,0,10.7014,0,10.7014,0;}
	
		.st19{fill:none;stroke:#8755FF;stroke-width:1.0701;stroke-linecap:round;stroke-miterlimit:1;stroke-dasharray:10.7014,0,10.7014,0,10.7014,0;}
	
		.st20{fill:none;stroke:#8A52FF;stroke-width:1.0701;stroke-linecap:round;stroke-miterlimit:1;stroke-dasharray:10.7014,0,10.7014,0,10.7014,0;}
	
		.st21{fill:none;stroke:#8D50FF;stroke-width:1.0701;stroke-linecap:round;stroke-miterlimit:1;stroke-dasharray:10.7014,0,10.7014,0,10.7014,0;}
	
		.st22{fill:none;stroke:#8F4DFF;stroke-width:1.0701;stroke-linecap:round;stroke-miterlimit:1;stroke-dasharray:10.7014,0,10.7014,0,10.7014,0;}
	
		.st23{fill:none;stroke:#924AFF;stroke-width:1.0701;stroke-linecap:round;stroke-miterlimit:1;stroke-dasharray:10.7014,0,10.7014,0,10.7014,0;}
	
		.st24{fill:none;stroke:#9347FF;stroke-width:1.0701;stroke-linecap:round;stroke-miterlimit:1;stroke-dasharray:10.7014,0,10.7014,0,10.7014,0;}
	
		.st25{fill:none;stroke:#9644FF;stroke-width:1.0701;stroke-linecap:round;stroke-miterlimit:1;stroke-dasharray:10.7014,0,10.7014,0,10.7014,0;}
	
		.st26{fill:none;stroke:#9841FF;stroke-width:1.0701;stroke-linecap:round;stroke-miterlimit:1;stroke-dasharray:10.7014,0,10.7014,0,10.7014,0;}
	
		.st27{fill:none;stroke:#9B3EFF;stroke-width:1.0701;stroke-linecap:round;stroke-miterlimit:1;stroke-dasharray:10.7014,0,10.7014,0,10.7014,0;}
	
		.st28{fill:none;stroke:#9C3CFF;stroke-width:1.0701;stroke-linecap:round;stroke-miterlimit:1;stroke-dasharray:10.7014,0,10.7014,0,10.7014,0;}
	
		.st29{fill:none;stroke:#9F38FF;stroke-width:1.0701;stroke-linecap:round;stroke-miterlimit:1;stroke-dasharray:10.7014,0,10.7014,0,10.7014,0;}
	
		.st30{fill:none;stroke:#A135FF;stroke-width:1.0701;stroke-linecap:round;stroke-miterlimit:1;stroke-dasharray:10.7014,0,10.7014,0,10.7014,0;}
	
		.st31{fill:none;stroke:#A333FF;stroke-width:1.0701;stroke-linecap:round;stroke-miterlimit:1;stroke-dasharray:10.7014,0,10.7014,0,10.7014,0;}
	
		.st32{fill:none;stroke:#A630FF;stroke-width:1.0701;stroke-linecap:round;stroke-miterlimit:1;stroke-dasharray:10.7014,0,10.7014,0,10.7014,0;}
	
		.st33{fill:none;stroke:#A72CFF;stroke-width:1.0701;stroke-linecap:round;stroke-miterlimit:1;stroke-dasharray:10.7014,0,10.7014,0,10.7014,0;}
	
		.st34{fill:none;stroke:#AA2AFF;stroke-width:1.0701;stroke-linecap:round;stroke-miterlimit:1;stroke-dasharray:10.7014,0,10.7014,0,10.7014,0;}
	
		.st35{fill:none;stroke:#AB27FF;stroke-width:1.0701;stroke-linecap:round;stroke-miterlimit:1;stroke-dasharray:10.7014,0,10.7014,0,10.7014,0;}
	
		.st36{fill:none;stroke:#AE23FF;stroke-width:1.0701;stroke-linecap:round;stroke-miterlimit:1;stroke-dasharray:10.7014,0,10.7014,0,10.7014,0;}
	
		.st37{fill:none;stroke:#AF21FF;stroke-width:1.0701;stroke-linecap:round;stroke-miterlimit:1;stroke-dasharray:10.7014,0,10.7014,0,10.7014,0;}
	
		.st38{fill:none;stroke:#B21EFF;stroke-width:1.0701;stroke-linecap:round;stroke-miterlimit:1;stroke-dasharray:10.7014,0,10.7014,0,10.7014,0;}
	
		.st39{fill:none;stroke:#B31AFF;stroke-width:1.0701;stroke-linecap:round;stroke-miterlimit:1;stroke-dasharray:10.7014,0,10.7014,0,10.7014,0;}
	
		.st40{fill:none;stroke:#B618FF;stroke-width:1.0701;stroke-linecap:round;stroke-miterlimit:1;stroke-dasharray:10.7014,0,10.7014,0,10.7014,0;}
	
		.st41{fill:none;stroke:#B814FF;stroke-width:1.0701;stroke-linecap:round;stroke-miterlimit:1;stroke-dasharray:10.7014,0,10.7014,0,10.7014,0;}
	
		.st42{fill:none;stroke:#B911FF;stroke-width:1.0701;stroke-linecap:round;stroke-miterlimit:1;stroke-dasharray:10.7014,0,10.7014,0,10.7014,0;}
	
		.st43{fill:none;stroke:#BC0DFF;stroke-width:1.0701;stroke-linecap:round;stroke-miterlimit:1;stroke-dasharray:10.7014,0,10.7014,0,10.7014,0;}
	
		.st44{fill:none;stroke:#BD0BFF;stroke-width:1.0701;stroke-linecap:round;stroke-miterlimit:1;stroke-dasharray:10.7014,0,10.7014,0,10.7014,0;}
	
		.st45{fill:none;stroke:#BF07FF;stroke-width:1.0701;stroke-linecap:round;stroke-miterlimit:1;stroke-dasharray:10.7014,0,10.7014,0,10.7014,0;}
	
		.st46{fill:none;stroke:#C005FF;stroke-width:1.0701;stroke-linecap:round;stroke-miterlimit:1;stroke-dasharray:10.7014,0,10.7014,0,10.7014,0;}
	
		.st47{fill:none;stroke:#C303FF;stroke-width:1.0701;stroke-linecap:round;stroke-miterlimit:1;stroke-dasharray:10.7014,0,10.7014,0,10.7014,0;}
	
		.st48{fill:none;stroke:#C402FF;stroke-width:1.0701;stroke-linecap:round;stroke-miterlimit:1;stroke-dasharray:10.7014,0,10.7014,0,10.7014,0;}
	
		.st49{fill:none;stroke:#C601FF;stroke-width:1.0701;stroke-linecap:round;stroke-miterlimit:1;stroke-dasharray:10.7014,0,10.7014,0,10.7014,0;}
	
		.st50{fill:none;stroke:#C700FF;stroke-width:1.0701;stroke-linecap:round;stroke-miterlimit:1;stroke-dasharray:10.7014,0,10.7014,0,10.7014,0;}
	
		.st51{fill:none;stroke:#CA00FF;stroke-width:1.0701;stroke-linecap:round;stroke-miterlimit:1;stroke-dasharray:10.7014,0,10.7014,0,10.7014,0;}
	
		.st52{fill:none;stroke:#CB00FF;stroke-width:1.0701;stroke-linecap:round;stroke-miterlimit:1;stroke-dasharray:10.7014,0,10.7014,0,10.7014,0;}
	
		.st53{fill:none;stroke:#CC00FF;stroke-width:1.0701;stroke-linecap:round;stroke-miterlimit:1;stroke-dasharray:10.7014,0,10.7014,0,10.7014,0;}
	
		.st54{fill:none;stroke:#CD00FF;stroke-width:1.0701;stroke-linecap:round;stroke-miterlimit:1;stroke-dasharray:10.7014,0,10.7014,0,10.7014,0;}
	
		.st55{fill:none;stroke:#CE00FF;stroke-width:1.0701;stroke-linecap:round;stroke-miterlimit:1;stroke-dasharray:10.7014,0,10.7014,0,10.7014,0;}
	
		.st56{fill:none;stroke:#D000FF;stroke-width:1.0701;stroke-linecap:round;stroke-miterlimit:1;stroke-dasharray:10.7014,0,10.7014,0,10.7014,0;}
	
		.st57{fill:none;stroke:#D101FF;stroke-width:1.0701;stroke-linecap:round;stroke-miterlimit:1;stroke-dasharray:10.7014,0,10.7014,0,10.7014,0;}
	
		.st58{fill:none;stroke:#D201FF;stroke-width:1.0701;stroke-linecap:round;stroke-miterlimit:1;stroke-dasharray:10.7014,0,10.7014,0,10.7014,0;}
	
		.st59{fill:none;stroke:#D301FD;stroke-width:1.0701;stroke-linecap:round;stroke-miterlimit:1;stroke-dasharray:10.7014,0,10.7014,0,10.7014,0;}
	
		.st60{fill:none;stroke:#D401FC;stroke-width:1.0701;stroke-linecap:round;stroke-miterlimit:1;stroke-dasharray:10.7014,0,10.7014,0,10.7014,0;}
	
		.st61{fill:none;stroke:#D402FC;stroke-width:1.0701;stroke-linecap:round;stroke-miterlimit:1;stroke-dasharray:10.7014,0,10.7014,0,10.7014,0;}
	
		.st62{fill:none;stroke:#D502FB;stroke-width:1.0701;stroke-linecap:round;stroke-miterlimit:1;stroke-dasharray:10.7014,0,10.7014,0,10.7014,0;}
	
		.st63{fill:none;stroke:#D603FA;stroke-width:1.0701;stroke-linecap:round;stroke-miterlimit:1;stroke-dasharray:10.7014,0,10.7014,0,10.7014,0;}
	
		.st64{fill:none;stroke:#D703FA;stroke-width:1.0701;stroke-linecap:round;stroke-miterlimit:1;stroke-dasharray:10.7014,0,10.7014,0,10.7014,0;}
	
		.st65{fill:none;stroke:#D903F9;stroke-width:1.0701;stroke-linecap:round;stroke-miterlimit:1;stroke-dasharray:10.7014,0,10.7014,0,10.7014,0;}
	
		.st66{fill:none;stroke:#DA04F8;stroke-width:1.0701;stroke-linecap:round;stroke-miterlimit:1;stroke-dasharray:10.7014,0,10.7014,0,10.7014,0;}
	
		.st67{fill:none;stroke:#DB05F8;stroke-width:1.0701;stroke-linecap:round;stroke-miterlimit:1;stroke-dasharray:10.7014,0,10.7014,0,10.7014,0;}
	
		.st68{fill:none;stroke:#DC05F7;stroke-width:1.0701;stroke-linecap:round;stroke-miterlimit:1;stroke-dasharray:10.7014,0,10.7014,0,10.7014,0;}
	
		.st69{fill:none;stroke:#DC06F6;stroke-width:1.0701;stroke-linecap:round;stroke-miterlimit:1;stroke-dasharray:10.7014,0,10.7014,0,10.7014,0;}
	
		.st70{fill:none;stroke:#DD06F6;stroke-width:1.0701;stroke-linecap:round;stroke-miterlimit:1;stroke-dasharray:10.7014,0,10.7014,0,10.7014,0;}
	
		.st71{fill:none;stroke:#DE07F5;stroke-width:1.0701;stroke-linecap:round;stroke-miterlimit:1;stroke-dasharray:10.7014,0,10.7014,0,10.7014,0;}
	
		.st72{fill:none;stroke:#DF07F4;stroke-width:1.0701;stroke-linecap:round;stroke-miterlimit:1;stroke-dasharray:10.7014,0,10.7014,0,10.7014,0;}
	
		.st73{fill:none;stroke:#E109F4;stroke-width:1.0701;stroke-linecap:round;stroke-miterlimit:1;stroke-dasharray:10.7014,0,10.7014,0,10.7014,0;}
	
		.st74{fill:none;stroke:#E20AF3;stroke-width:1.0701;stroke-linecap:round;stroke-miterlimit:1;stroke-dasharray:10.7014,0,10.7014,0,10.7014,0;}
	
		.st75{fill:none;stroke:#E30BF2;stroke-width:1.0701;stroke-linecap:round;stroke-miterlimit:1;stroke-dasharray:10.7014,0,10.7014,0,10.7014,0;}
	
		.st76{fill:none;stroke:#E40CF1;stroke-width:1.0701;stroke-linecap:round;stroke-miterlimit:1;stroke-dasharray:10.7014,0,10.7014,0,10.7014,0;}
	
		.st77{fill:none;stroke:#E50DF0;stroke-width:1.0701;stroke-linecap:round;stroke-miterlimit:1;stroke-dasharray:10.7014,0,10.7014,0,10.7014,0;}
	
		.st78{fill:none;stroke:#E60EF0;stroke-width:1.0701;stroke-linecap:round;stroke-miterlimit:1;stroke-dasharray:10.7014,0,10.7014,0,10.7014,0;}
	
		.st79{fill:none;stroke:#E70EEF;stroke-width:1.0701;stroke-linecap:round;stroke-miterlimit:1;stroke-dasharray:10.7014,0,10.7014,0,10.7014,0;}
	
		.st80{fill:none;stroke:#E810EE;stroke-width:1.0701;stroke-linecap:round;stroke-miterlimit:1;stroke-dasharray:10.7014,0,10.7014,0,10.7014,0;}
	
		.st81{fill:none;stroke:#E911EE;stroke-width:1.0701;stroke-linecap:round;stroke-miterlimit:1;stroke-dasharray:10.7014,0,10.7014,0,10.7014,0;}
	
		.st82{fill:none;stroke:#E912ED;stroke-width:1.0701;stroke-linecap:round;stroke-miterlimit:1;stroke-dasharray:10.7014,0,10.7014,0,10.7014,0;}
	
		.st83{fill:none;stroke:#EB12EC;stroke-width:1.0701;stroke-linecap:round;stroke-miterlimit:1;stroke-dasharray:10.7014,0,10.7014,0,10.7014,0;}
	
		.st84{fill:none;stroke:#EC13EC;stroke-width:1.0701;stroke-linecap:round;stroke-miterlimit:1;stroke-dasharray:10.7014,0,10.7014,0,10.7014,0;}
	
		.st85{fill:none;stroke:#ED14EB;stroke-width:1.0701;stroke-linecap:round;stroke-miterlimit:1;stroke-dasharray:10.7014,0,10.7014,0,10.7014,0;}
	
		.st86{fill:none;stroke:#EE15EA;stroke-width:1.0701;stroke-linecap:round;stroke-miterlimit:1;stroke-dasharray:10.7014,0,10.7014,0,10.7014,0;}
	
		.st87{fill:none;stroke:#EF15EA;stroke-width:1.0701;stroke-linecap:round;stroke-miterlimit:1;stroke-dasharray:10.7014,0,10.7014,0,10.7014,0;}
	
		.st88{fill:none;stroke:#F017E9;stroke-width:1.0701;stroke-linecap:round;stroke-miterlimit:1;stroke-dasharray:10.7014,0,10.7014,0,10.7014,0;}
	
		.st89{fill:none;stroke:#F118E8;stroke-width:1.0701;stroke-linecap:round;stroke-miterlimit:1;stroke-dasharray:10.7014,0,10.7014,0,10.7014,0;}
	
		.st90{fill:none;stroke:#F119E8;stroke-width:1.0701;stroke-linecap:round;stroke-miterlimit:1;stroke-dasharray:10.7014,0,10.7014,0,10.7014,0;}
	
		.st91{fill:none;stroke:#F219E7;stroke-width:1.0701;stroke-linecap:round;stroke-miterlimit:1;stroke-dasharray:10.7014,0,10.7014,0,10.7014,0;}
	
		.st92{fill:none;stroke:#F31AE6;stroke-width:1.0701;stroke-linecap:round;stroke-miterlimit:1;stroke-dasharray:10.7014,0,10.7014,0,10.7014,0;}
	
		.st93{fill:none;stroke:#F51BE6;stroke-width:1.0701;stroke-linecap:round;stroke-miterlimit:1;stroke-dasharray:10.7014,0,10.7014,0,10.7014,0;}
	
		.st94{fill:none;stroke:#F61CE5;stroke-width:1.0701;stroke-linecap:round;stroke-miterlimit:1;stroke-dasharray:10.7014,0,10.7014,0,10.7014,0;}
	
		.st95{fill:none;stroke:#F71CE4;stroke-width:1.0701;stroke-linecap:round;stroke-miterlimit:1;stroke-dasharray:10.7014,0,10.7014,0,10.7014,0;}
	
		.st96{fill:none;stroke:#F81EE4;stroke-width:1.0701;stroke-linecap:round;stroke-miterlimit:1;stroke-dasharray:10.7014,0,10.7014,0,10.7014,0;}
	
		.st97{fill:none;stroke:#F81FE3;stroke-width:1.0701;stroke-linecap:round;stroke-miterlimit:1;stroke-dasharray:10.7014,0,10.7014,0,10.7014,0;}
	
		.st98{fill:none;stroke:#F920E2;stroke-width:1.0701;stroke-linecap:round;stroke-miterlimit:1;stroke-dasharray:10.7014,0,10.7014,0,10.7014,0;}
	
		.st99{fill:none;stroke:#FA20E2;stroke-width:1.0701;stroke-linecap:round;stroke-miterlimit:1;stroke-dasharray:10.7014,0,10.7014,0,10.7014,0;}
	
		.st100{fill:none;stroke:#FB21E1;stroke-width:1.0701;stroke-linecap:round;stroke-miterlimit:1;stroke-dasharray:10.7014,0,10.7014,0,10.7014,0;}
	
		.st101{fill:none;stroke:#00F3FF;stroke-width:1.0701;stroke-linecap:round;stroke-miterlimit:1;stroke-dasharray:10.7014,0,10.7014,0,10.7014,0;}
	
		.st102{fill:none;stroke:#00F1FF;stroke-width:1.0701;stroke-linecap:round;stroke-miterlimit:1;stroke-dasharray:10.7014,0,10.7014,0,10.7014,0;}
	
		.st103{fill:none;stroke:#00EFFF;stroke-width:1.0701;stroke-linecap:round;stroke-miterlimit:1;stroke-dasharray:10.7014,0,10.7014,0,10.7014,0;}
	
		.st104{fill:none;stroke:#00EEFF;stroke-width:1.0701;stroke-linecap:round;stroke-miterlimit:1;stroke-dasharray:10.7014,0,10.7014,0,10.7014,0;}
	
		.st105{fill:none;stroke:#00ECFF;stroke-width:1.0701;stroke-linecap:round;stroke-miterlimit:1;stroke-dasharray:10.7014,0,10.7014,0,10.7014,0;}
	
		.st106{fill:none;stroke:#00EAFF;stroke-width:1.0701;stroke-linecap:round;stroke-miterlimit:1;stroke-dasharray:10.7014,0,10.7014,0,10.7014,0;}
	
		.st107{fill:none;stroke:#00E7FF;stroke-width:1.0701;stroke-linecap:round;stroke-miterlimit:1;stroke-dasharray:10.7014,0,10.7014,0,10.7014,0;}
	
		.st108{fill:none;stroke:#00E5FF;stroke-width:1.0701;stroke-linecap:round;stroke-miterlimit:1;stroke-dasharray:10.7014,0,10.7014,0,10.7014,0;}
	
		.st109{fill:none;stroke:#00E3FF;stroke-width:1.0701;stroke-linecap:round;stroke-miterlimit:1;stroke-dasharray:10.7014,0,10.7014,0,10.7014,0;}
	
		.st110{fill:none;stroke:#00E1FF;stroke-width:1.0701;stroke-linecap:round;stroke-miterlimit:1;stroke-dasharray:10.7014,0,10.7014,0,10.7014,0;}
	
		.st111{fill:none;stroke:#00DFFF;stroke-width:1.0701;stroke-linecap:round;stroke-miterlimit:1;stroke-dasharray:10.7014,0,10.7014,0,10.7014,0;}
	
		.st112{fill:none;stroke:#00DDFF;stroke-width:1.0701;stroke-linecap:round;stroke-miterlimit:1;stroke-dasharray:10.7014,0,10.7014,0,10.7014,0;}
	
		.st113{fill:none;stroke:#00DBFF;stroke-width:1.0701;stroke-linecap:round;stroke-miterlimit:1;stroke-dasharray:10.7014,0,10.7014,0,10.7014,0;}
	
		.st114{fill:none;stroke:#00D9FF;stroke-width:1.0701;stroke-linecap:round;stroke-miterlimit:1;stroke-dasharray:10.7014,0,10.7014,0,10.7014,0;}
	
		.st115{fill:none;stroke:#00D7FF;stroke-width:1.0701;stroke-linecap:round;stroke-miterlimit:1;stroke-dasharray:10.7014,0,10.7014,0,10.7014,0;}
	
		.st116{fill:none;stroke:#00D5FF;stroke-width:1.0701;stroke-linecap:round;stroke-miterlimit:1;stroke-dasharray:10.7014,0,10.7014,0,10.7014,0;}
	
		.st117{fill:none;stroke:#00D2FF;stroke-width:1.0701;stroke-linecap:round;stroke-miterlimit:1;stroke-dasharray:10.7014,0,10.7014,0,10.7014,0;}
	
		.st118{fill:none;stroke:#00D0FF;stroke-width:1.0701;stroke-linecap:round;stroke-miterlimit:1;stroke-dasharray:10.7014,0,10.7014,0,10.7014,0;}
	
		.st119{fill:none;stroke:#00CEFF;stroke-width:1.0701;stroke-linecap:round;stroke-miterlimit:1;stroke-dasharray:10.7014,0,10.7014,0,10.7014,0;}
	
		.st120{fill:none;stroke:#00CCFF;stroke-width:1.0701;stroke-linecap:round;stroke-miterlimit:1;stroke-dasharray:10.7014,0,10.7014,0,10.7014,0;}
	
		.st121{fill:none;stroke:#00CAFF;stroke-width:1.0701;stroke-linecap:round;stroke-miterlimit:1;stroke-dasharray:10.7014,0,10.7014,0,10.7014,0;}
	
		.st122{fill:none;stroke:#00C8FF;stroke-width:1.0701;stroke-linecap:round;stroke-miterlimit:1;stroke-dasharray:10.7014,0,10.7014,0,10.7014,0;}
	
		.st123{fill:none;stroke:#00C6FF;stroke-width:1.0701;stroke-linecap:round;stroke-miterlimit:1;stroke-dasharray:10.7014,0,10.7014,0,10.7014,0;}
	
		.st124{fill:none;stroke:#00C4FF;stroke-width:1.0701;stroke-linecap:round;stroke-miterlimit:1;stroke-dasharray:10.7014,0,10.7014,0,10.7014,0;}
	
		.st125{fill:none;stroke:#00C2FF;stroke-width:1.0701;stroke-linecap:round;stroke-miterlimit:1;stroke-dasharray:10.7014,0,10.7014,0,10.7014,0;}
	
		.st126{fill:none;stroke:#00C0FF;stroke-width:1.0701;stroke-linecap:round;stroke-miterlimit:1;stroke-dasharray:10.7014,0,10.7014,0,10.7014,0;}
	
		.st127{fill:none;stroke:#00BDFF;stroke-width:1.0701;stroke-linecap:round;stroke-miterlimit:1;stroke-dasharray:10.7014,0,10.7014,0,10.7014,0;}
	
		.st128{fill:none;stroke:#00BBFF;stroke-width:1.0701;stroke-linecap:round;stroke-miterlimit:1;stroke-dasharray:10.7014,0,10.7014,0,10.7014,0;}
	
		.st129{fill:none;stroke:#00B9FF;stroke-width:1.0701;stroke-linecap:round;stroke-miterlimit:1;stroke-dasharray:10.7014,0,10.7014,0,10.7014,0;}
	
		.st130{fill:none;stroke:#00B7FF;stroke-width:1.0701;stroke-linecap:round;stroke-miterlimit:1;stroke-dasharray:10.7014,0,10.7014,0,10.7014,0;}
	
		.st131{fill:none;stroke:#00B5FF;stroke-width:1.0701;stroke-linecap:round;stroke-miterlimit:1;stroke-dasharray:10.7014,0,10.7014,0,10.7014,0;}
	
		.st132{fill:none;stroke:#00B4FF;stroke-width:1.0701;stroke-linecap:round;stroke-miterlimit:1;stroke-dasharray:10.7014,0,10.7014,0,10.7014,0;}
	
		.st133{fill:none;stroke:#00B2FF;stroke-width:1.0701;stroke-linecap:round;stroke-miterlimit:1;stroke-dasharray:10.7014,0,10.7014,0,10.7014,0;}
	
		.st134{fill:none;stroke:#00B0FF;stroke-width:1.0701;stroke-linecap:round;stroke-miterlimit:1;stroke-dasharray:10.7014,0,10.7014,0,10.7014,0;}
	
		.st135{fill:none;stroke:#00AEFF;stroke-width:1.0701;stroke-linecap:round;stroke-miterlimit:1;stroke-dasharray:10.7014,0,10.7014,0,10.7014,0;}
	
		.st136{fill:none;stroke:#05ACFF;stroke-width:1.0701;stroke-linecap:round;stroke-miterlimit:1;stroke-dasharray:10.7014,0,10.7014,0,10.7014,0;}
	
		.st137{fill:none;stroke:#0DA9FF;stroke-width:1.0701;stroke-linecap:round;stroke-miterlimit:1;stroke-dasharray:10.7014,0,10.7014,0,10.7014,0;}
	
		.st138{fill:none;stroke:#16A7FF;stroke-width:1.0701;stroke-linecap:round;stroke-miterlimit:1;stroke-dasharray:10.7014,0,10.7014,0,10.7014,0;}
	
		.st139{fill:none;stroke:#1DA5FF;stroke-width:1.0701;stroke-linecap:round;stroke-miterlimit:1;stroke-dasharray:10.7014,0,10.7014,0,10.7014,0;}
	
		.st140{fill:none;stroke:#22A2FF;stroke-width:1.0701;stroke-linecap:round;stroke-miterlimit:1;stroke-dasharray:10.7014,0,10.7014,0,10.7014,0;}
	
		.st141{fill:none;stroke:#27A0FF;stroke-width:1.0701;stroke-linecap:round;stroke-miterlimit:1;stroke-dasharray:10.7014,0,10.7014,0,10.7014,0;}
	
		.st142{fill:none;stroke:#2B9EFF;stroke-width:1.0701;stroke-linecap:round;stroke-miterlimit:1;stroke-dasharray:10.7014,0,10.7014,0,10.7014,0;}
	
		.st143{fill:none;stroke:#2B9CFF;stroke-width:1.0701;stroke-linecap:round;stroke-miterlimit:1;stroke-dasharray:10.7014,0,10.7014,0,10.7014,0;}
	
		.st144{fill:none;stroke:#2F9AFF;stroke-width:1.0701;stroke-linecap:round;stroke-miterlimit:1;stroke-dasharray:10.7014,0,10.7014,0,10.7014,0;}
	
		.st145{fill:none;stroke:#3298FF;stroke-width:1.0701;stroke-linecap:round;stroke-miterlimit:1;stroke-dasharray:10.7014,0,10.7014,0,10.7014,0;}
	
		.st146{fill:none;stroke:#3596FF;stroke-width:1.0701;stroke-linecap:round;stroke-miterlimit:1;stroke-dasharray:10.7014,0,10.7014,0,10.7014,0;}
	
		.st147{fill:none;stroke:#3993FF;stroke-width:1.0701;stroke-linecap:round;stroke-miterlimit:1;stroke-dasharray:10.7014,0,10.7014,0,10.7014,0;}
	
		.st148{fill:none;stroke:#3B91FF;stroke-width:1.0701;stroke-linecap:round;stroke-miterlimit:1;stroke-dasharray:10.7014,0,10.7014,0,10.7014,0;}
	
		.st149{fill:none;stroke:#3B8FFF;stroke-width:1.0701;stroke-linecap:round;stroke-miterlimit:1;stroke-dasharray:10.7014,0,10.7014,0,10.7014,0;}
	
		.st150{fill:none;stroke:#3E8DFF;stroke-width:1.0701;stroke-linecap:round;stroke-miterlimit:1;stroke-dasharray:10.7014,0,10.7014,0,10.7014,0;}
	
		.st151{fill:none;stroke:#408BFF;stroke-width:1.0701;stroke-linecap:round;stroke-miterlimit:1;stroke-dasharray:10.7014,0,10.7014,0,10.7014,0;}
	
		.st152{fill:none;stroke:#00E6FF;stroke-width:1.0701;stroke-linecap:round;stroke-miterlimit:1;stroke-dasharray:10.7014,0,10.7014,0,10.7014,0;}
	
		.st153{fill:none;stroke:#00DCFF;stroke-width:1.0701;stroke-linecap:round;stroke-miterlimit:1;stroke-dasharray:10.7014,0,10.7014,0,10.7014,0;}
	
		.st154{fill:none;stroke:#00D3FF;stroke-width:1.0701;stroke-linecap:round;stroke-miterlimit:1;stroke-dasharray:10.7014,0,10.7014,0,10.7014,0;}
	
		.st155{fill:none;stroke:#13C9FF;stroke-width:1.0701;stroke-linecap:round;stroke-miterlimit:1;stroke-dasharray:10.7014,0,10.7014,0,10.7014,0;}
	
		.st156{fill:none;stroke:#2BC4FF;stroke-width:1.0701;stroke-linecap:round;stroke-miterlimit:1;stroke-dasharray:10.7014,0,10.7014,0,10.7014,0;}
	
		.st157{fill:none;stroke:#39BFFF;stroke-width:1.0701;stroke-linecap:round;stroke-miterlimit:1;stroke-dasharray:10.7014,0,10.7014,0,10.7014,0;}
	
		.st158{fill:none;stroke:#45BBFF;stroke-width:1.0701;stroke-linecap:round;stroke-miterlimit:1;stroke-dasharray:10.7014,0,10.7014,0,10.7014,0;}
	
		.st159{fill:none;stroke:#4EB6FF;stroke-width:1.0701;stroke-linecap:round;stroke-miterlimit:1;stroke-dasharray:10.7014,0,10.7014,0,10.7014,0;}
	
		.st160{fill:none;stroke:#56B2FF;stroke-width:1.0701;stroke-linecap:round;stroke-miterlimit:1;stroke-dasharray:10.7014,0,10.7014,0,10.7014,0;}
	
		.st161{fill:none;stroke:#5FADFF;stroke-width:1.0701;stroke-linecap:round;stroke-miterlimit:1;stroke-dasharray:10.7014,0,10.7014,0,10.7014,0;}
	
		.st162{fill:none;stroke:#65A8FF;stroke-width:1.0701;stroke-linecap:round;stroke-miterlimit:1;stroke-dasharray:10.7014,0,10.7014,0,10.7014,0;}
	
		.st163{fill:none;stroke:#6BA4FF;stroke-width:1.0701;stroke-linecap:round;stroke-miterlimit:1;stroke-dasharray:10.7014,0,10.7014,0,10.7014,0;}
	
		.st164{fill:none;stroke:#709EFF;stroke-width:1.0701;stroke-linecap:round;stroke-miterlimit:1;stroke-dasharray:10.7014,0,10.7014,0,10.7014,0;}
	
		.st165{fill:none;stroke:#7599FF;stroke-width:1.0701;stroke-linecap:round;stroke-miterlimit:1;stroke-dasharray:10.7014,0,10.7014,0,10.7014,0;}
	
		.st166{fill:none;stroke:#7B94FF;stroke-width:1.0701;stroke-linecap:round;stroke-miterlimit:1;stroke-dasharray:10.7014,0,10.7014,0,10.7014,0;}
	
		.st167{fill:none;stroke:#7E90FF;stroke-width:1.0701;stroke-linecap:round;stroke-miterlimit:1;stroke-dasharray:10.7014,0,10.7014,0,10.7014,0;}
	
		.st168{fill:none;stroke:#838BFF;stroke-width:1.0701;stroke-linecap:round;stroke-miterlimit:1;stroke-dasharray:10.7014,0,10.7014,0,10.7014,0;}
	
		.st169{fill:none;stroke:#8686FF;stroke-width:1.0701;stroke-linecap:round;stroke-miterlimit:1;stroke-dasharray:10.7014,0,10.7014,0,10.7014,0;}
	
		.st170{fill:none;stroke:#8A81FF;stroke-width:1.0701;stroke-linecap:round;stroke-miterlimit:1;stroke-dasharray:10.7014,0,10.7014,0,10.7014,0;}
	
		.st171{fill:none;stroke:#8E7DFF;stroke-width:1.0701;stroke-linecap:round;stroke-miterlimit:1;stroke-dasharray:10.7014,0,10.7014,0,10.7014,0;}
	
		.st172{fill:none;stroke:#9179FF;stroke-width:1.0701;stroke-linecap:round;stroke-miterlimit:1;stroke-dasharray:10.7014,0,10.7014,0,10.7014,0;}
	
		.st173{fill:none;stroke:#9574FF;stroke-width:1.0701;stroke-linecap:round;stroke-miterlimit:1;stroke-dasharray:10.7014,0,10.7014,0,10.7014,0;}
	
		.st174{fill:none;stroke:#986EFF;stroke-width:1.0701;stroke-linecap:round;stroke-miterlimit:1;stroke-dasharray:10.7014,0,10.7014,0,10.7014,0;}
	
		.st175{fill:none;stroke:#9A69FF;stroke-width:1.0701;stroke-linecap:round;stroke-miterlimit:1;stroke-dasharray:10.7014,0,10.7014,0,10.7014,0;}
	
		.st176{fill:none;stroke:#9E64FF;stroke-width:1.0701;stroke-linecap:round;stroke-miterlimit:1;stroke-dasharray:10.7014,0,10.7014,0,10.7014,0;}
	
		.st177{fill:none;stroke:#A060FF;stroke-width:1.0701;stroke-linecap:round;stroke-miterlimit:1;stroke-dasharray:10.7014,0,10.7014,0,10.7014,0;}
	
		.st178{fill:none;stroke:#A45BFF;stroke-width:1.0701;stroke-linecap:round;stroke-miterlimit:1;stroke-dasharray:10.7014,0,10.7014,0,10.7014,0;}
	
		.st179{fill:none;stroke:#A655FF;stroke-width:1.0701;stroke-linecap:round;stroke-miterlimit:1;stroke-dasharray:10.7014,0,10.7014,0,10.7014,0;}
	
		.st180{fill:none;stroke:#A850FF;stroke-width:1.0701;stroke-linecap:round;stroke-miterlimit:1;stroke-dasharray:10.7014,0,10.7014,0,10.7014,0;}
	
		.st181{fill:none;stroke:#AB4CFF;stroke-width:1.0701;stroke-linecap:round;stroke-miterlimit:1;stroke-dasharray:10.7014,0,10.7014,0,10.7014,0;}
	
		.st182{fill:none;stroke:#AD46FF;stroke-width:1.0701;stroke-linecap:round;stroke-miterlimit:1;stroke-dasharray:10.7014,0,10.7014,0,10.7014,0;}
	
		.st183{fill:none;stroke:#B041FF;stroke-width:1.0701;stroke-linecap:round;stroke-miterlimit:1;stroke-dasharray:10.7014,0,10.7014,0,10.7014,0;}
	
		.st184{fill:none;stroke:#B23CFF;stroke-width:1.0701;stroke-linecap:round;stroke-miterlimit:1;stroke-dasharray:10.7014,0,10.7014,0,10.7014,0;}
	
		.st185{fill:none;stroke:#B436FF;stroke-width:1.0701;stroke-linecap:round;stroke-miterlimit:1;stroke-dasharray:10.7014,0,10.7014,0,10.7014,0;}
	
		.st186{fill:none;stroke:#B632FF;stroke-width:1.0701;stroke-linecap:round;stroke-miterlimit:1;stroke-dasharray:10.7014,0,10.7014,0,10.7014,0;}
	
		.st187{fill:none;stroke:#B82CFF;stroke-width:1.0701;stroke-linecap:round;stroke-miterlimit:1;stroke-dasharray:10.7014,0,10.7014,0,10.7014,0;}
	
		.st188{fill:none;stroke:#B927FF;stroke-width:1.0701;stroke-linecap:round;stroke-miterlimit:1;stroke-dasharray:10.7014,0,10.7014,0,10.7014,0;}
	
		.st189{fill:none;stroke:#BC21FF;stroke-width:1.0701;stroke-linecap:round;stroke-miterlimit:1;stroke-dasharray:10.7014,0,10.7014,0,10.7014,0;}
	
		.st190{fill:none;stroke:#BE1BFF;stroke-width:1.0701;stroke-linecap:round;stroke-miterlimit:1;stroke-dasharray:10.7014,0,10.7014,0,10.7014,0;}
	
		.st191{fill:none;stroke:#C017FF;stroke-width:1.0701;stroke-linecap:round;stroke-miterlimit:1;stroke-dasharray:10.7014,0,10.7014,0,10.7014,0;}
	
		.st192{fill:none;stroke:#C111FF;stroke-width:1.0701;stroke-linecap:round;stroke-miterlimit:1;stroke-dasharray:10.7014,0,10.7014,0,10.7014,0;}
	
		.st193{fill:none;stroke:#C30BFF;stroke-width:1.0701;stroke-linecap:round;stroke-miterlimit:1;stroke-dasharray:10.7014,0,10.7014,0,10.7014,0;}
	
		.st194{fill:none;stroke:#C506FF;stroke-width:1.0701;stroke-linecap:round;stroke-miterlimit:1;stroke-dasharray:10.7014,0,10.7014,0,10.7014,0;}
	
		.st195{fill:none;stroke:#C603FF;stroke-width:1.0701;stroke-linecap:round;stroke-miterlimit:1;stroke-dasharray:10.7014,0,10.7014,0,10.7014,0;}
	
		.st196{fill:none;stroke:#C901FF;stroke-width:1.0701;stroke-linecap:round;stroke-miterlimit:1;stroke-dasharray:10.7014,0,10.7014,0,10.7014,0;}
</style><path class="st0" d="M408.7 177.9c-188.3 101.6 162.5 508.9 77.8 472 -168.2-73.2-17.1-288.3 61.1-352.6 78.2-64.2 291.9 55.6 367.8 122.5C1074.5 560.1 548.2 102.6 408.7 177.9z" class="undefined"/><path class="st1" d="M405.1 184.9c-192.4 105.1 164.6 509 84.1 467.7 -159.8-82-14.1-294.6 64.3-355.4 78.4-60.9 287.5 62.2 360.3 129C1066.6 566.5 544.2 109.5 405.1 184.9z" class="undefined"/><path class="st2" d="M401.5 192C204.7 300 567.9 700.8 491.9 655.3c-152.3-91.2-11.2-300.8 67.5-358.3 78.6-57.5 283.1 68.7 352.8 135.5C1058.7 572.9 539.8 116 401.5 192z" class="undefined"/><path class="st3" d="M397.9 199c-201 111.4 168.1 508.4 96.8 459 -145.6-101-8.2-307.1 70.6-361.1 78.8-54.1 278.7 75.2 345.3 142C1050.8 579.3 535.6 122.7 397.9 199z" class="undefined"/><path class="st4" d="M394.3 206C189.1 320.7 564 713.8 497.4 660.6c-139.6-111.4-5.3-313.3 73.8-364C650.3 246 845.5 378.4 909 445.1 1042.8 585.6 531.5 129.4 394.3 206z" class="undefined"/><path class="st5" d="M390.7 213.1c-209.5 118 171.1 506.6 109.4 450.3 -134.3-122.7-2.3-319.6 77-366.8 79.3-47.3 269.8 88.2 330.3 154.9C1034.8 591.9 527.3 136.1 390.7 213.1z" class="undefined"/><path class="st6" d="M387.1 220.1C173.5 341.4 570.1 713.3 502.9 666c-101.3-156.9 0.7-325.8 80.2-369.7s265.3 94.6 322.8 161.4C1026.7 598.1 523.1 142.9 387.1 220.1z" class="undefined"/><path class="st7" d="M383.5 227.2C165.6 351.8 569.9 717.7 505.6 668.7c-90.2-170.8 3.6-332.1 83.3-372.6s260.7 101 315.3 167.9C1018.6 604.3 519 149.7 383.5 227.2z" class="undefined"/><path class="st8" d="M380 234.2c-222.1 128 189.8 487.9 128.4 437.2 -79.1-184.7 6.6-338.3 86.5-375.4 79.9-37.1 256.2 107.4 307.8 174.4C1010.4 610.3 514.8 156.5 380 234.2z" class="undefined"/><path class="st9" d="M376.4 241.2C150.1 372.6 569.5 726.6 511.1 674.1c-67.9-198.7 9.5-344.6 89.7-378.3 80.2-33.7 251.6 113.6 300.3 180.9C1002.3 616.3 510.7 163.3 376.4 241.2z" class="undefined"/><path class="st10" d="M372.8 248.3C142.3 383 569.4 731 513.8 676.7c-56.8-212.6 12.5-350.8 92.9-381.1 80.4-30.3 246.9 119.9 292.8 187.4C994.1 622.2 506.5 170.1 372.8 248.3z" class="undefined"/><path class="st11" d="M369.2 255.3c-234.7 138.1 200 480.1 147.4 424.1 -45.7-226.6 15.4-357.1 96-384 80.6-26.9 242.3 126.1 285.3 193.9C985.9 628.1 502.4 176.9 369.2 255.3z" class="undefined"/><path class="st12" d="M365.6 262.4C126.7 403.9 569 739.8 519.3 682.1c-34.5-240.5 18.4-363.3 99.2-386.8 80.8-23.5 237.6 132.2 277.8 200.4C977.7 633.7 498.3 183.8 365.6 262.4z" class="undefined"/><path class="st13" d="M362 269.4C119 414.3 568.8 744.2 522 684.8c-23.4-254.5 21.3-369.5 102.4-389.7C705.5 275 857.3 433.3 894.7 502 969.5 639.3 494.1 190.6 362 269.4z" class="undefined"/><path class="st14" d="M358.4 276.4c-247.2 148.4 210.2 472.2 166.4 411C512.5 419.1 549 311.7 630.3 294.9c81.3-16.7 228.2 144.2 262.8 213.4C961.4 644.7 490 197.5 358.4 276.4z" class="undefined"/><path class="st15" d="M354.8 283.5C103.4 435.3 568.5 753.1 527.5 690.1c-1.1-282.3 27.2-382 108.7-395.4 81.5-13.3 223.5 150.1 255.3 219.9C953.3 650 485.9 204.3 354.8 283.5z" class="undefined"/><path class="st16" d="M351.2 290.5c-255.5 155.3 217.1 467 179 402.3 10-296.3 30.2-388.3 111.9-398.2 81.7-9.9 218.8 156 247.8 226.4C945.3 655.2 481.8 211.2 351.2 290.5z" class="undefined"/><path class="st17" d="M347.7 297.6C88 456.3 568.1 761.9 533 695.5c21.1-310.2 33.1-394.5 115.1-401.1 81.9-6.6 214.2 161.7 240.3 232.8C937.3 660.2 477.7 218.1 347.7 297.6z" class="undefined"/><path class="st18" d="M344.1 304.6C80.2 466.8 567.9 766.3 535.7 698.2 568 374 571.8 297.4 654 294.2c82.2-3.2 209.5 167.4 232.8 239.3C929.5 665.1 473.6 225 344.1 304.6z" class="undefined"/><path class="st19" d="M340.5 311.6c-268 165.7 227.3 459.1 198 389.2 43.4-338.1 39-407 121.4-406.8 82.4 0.2 218.3 170.5 225.3 245.8C944.5 661.2 469.5 231.9 340.5 311.6z" class="undefined"/><path class="st20" d="M336.9 318.7C64.8 487.9 567.6 775.2 541.2 703.5c54.5-352.1 42-413.3 124.6-409.6 82.6 3.6 214.4 176.6 217.8 252.3C937.7 666.5 465.4 238.8 336.9 318.7z" class="undefined"/><path class="st21" d="M333.3 325.7C57.1 498.4 567.4 779.6 543.9 706.2c65.7-366 44.9-419.5 127.8-412.5S882.2 476.4 882 552.5C930.8 671.9 461.3 245.7 333.3 325.7z" class="undefined"/><path class="st22" d="M329.7 332.8C49.4 509 567.2 784 546.7 708.9c76.8-379.9 47.9-425.8 130.9-415.4 83 10.4 206.6 188.7 202.9 265.3C924 677.2 457.2 252.6 329.7 332.8z" class="undefined"/><path class="st23" d="M326.1 339.8C41.7 519.6 567.1 788.4 549.4 711.6c87.9-393.9 50.8-432 134.1-418.2 83.3 13.8 202.8 194.7 195.4 271.8C917.2 682.5 453.2 259.5 326.1 339.8z" class="undefined"/><path class="st24" d="M322.5 346.8C34 530.2 566.9 792.8 552.2 714.3 651.2 306.5 606 276 689.4 293.2c83.5 17.2 198.9 200.8 187.9 278.3C910.3 687.8 449.1 266.4 322.5 346.8z" class="undefined"/><path class="st25" d="M318.9 353.9C26.3 540.8 566.7 797.3 554.9 717 665.1 295.2 611.6 272.4 695.3 293c83.7 20.6 195 206.8 180.4 284.8C903.5 693.2 445 273.4 318.9 353.9z" class="undefined"/><path class="st26" d="M315.4 360.9C18.7 551.4 566.5 801.7 557.6 719.6 679 283.9 617.3 268.9 701.3 292.9s191.1 212.9 172.9 291.3C896.6 698.5 440.9 280.3 315.4 360.9z" class="undefined"/><path class="st27" d="M311.8 368C11 562 566.4 806.1 560.4 722.3c132.5-449.6 62.7-457 146.8-429.6 84.1 27.4 187.3 218.9 165.4 297.8C889.8 703.8 436.9 287.2 311.8 368z" class="undefined"/><path class="st28" d="M308.2 375C3.3 572.7 551.8 809.8 563.1 725c64-481.1 65.6-463.3 150-432.5s183.4 225 157.9 304.3C883 709.1 432.8 294.2 308.2 375z" class="undefined"/><path class="st29" d="M304.6 382C-4.3 583.3 552.3 813.9 565.9 727.7c77.9-495.9 68.6-469.5 153.1-435.3 84.6 34.2 179.5 231 150.4 310.8C876.1 714.5 428.7 301.1 304.6 382z" class="undefined"/><path class="st30" d="M301 389.1C-11.9 594 552.8 818 568.6 730.4c92-510.5 71.5-475.7 156.3-438.2 84.8 37.6 175.6 237.1 142.9 317.2C869.3 719.8 424.7 308.1 301 389.1z" class="undefined"/><path class="st31" d="M297.4 396.1c-317 208.6 255.9 426 273.9 336.9 106.2-524.9 74.5-482 159.5-441 85 41 171.8 243.1 135.4 323.7C862.4 725.1 420.6 315 297.4 396.1z" class="undefined"/><path class="st32" d="M293.8 403.2c-321 212.2 260 423.2 280.3 332.6 120.6-539.1 77.4-488.2 162.7-443.9C822 336.2 904.6 541 864.6 622.1 855.6 730.4 416.6 322 293.8 403.2z" class="undefined"/><path class="st33" d="M290.2 410.2c-325 215.9 264.1 420.4 286.6 328.2 135.1-553.1 80.4-494.5 165.8-446.7 85.5 47.7 164 255.2 120.4 336.7C848.8 735.7 412.5 328.9 290.2 410.2z" class="undefined"/><path class="st34" d="M286.6 417.2c-329 219.6 268.1 417.7 292.9 323.9 149.7-566.9 83.3-500.7 169-449.6 85.7 51.1 145.5 254.5 112.9 343.2C824.1 736.2 408.5 335.9 286.6 417.2z" class="undefined"/><path class="st35" d="M283 424.3c-333 223.3 272.2 415 299.2 319.5 164.3-580.5 86.3-507 172.2-452.4 85.9 54.5 142.4 260.2 105.4 349.7C818.5 741.1 404.4 342.9 283 424.3z" class="undefined"/><path class="st36" d="M279.5 431.3c-337 227 276.3 412.3 305.6 315.1 179-594 89.2-513.2 175.3-455.3 86.1 57.9 139.3 266.1 97.9 356.2C812.9 746 400.4 349.9 279.5 431.3z" class="undefined"/><path class="st37" d="M275.9 438.4C-65.1 669.1 556.2 848 587.8 749.1 781.5 141.7 679.9 229.7 766.3 291s136.3 272.1 90.4 362.7C807.3 751.1 396.3 356.8 275.9 438.4z" class="undefined"/><path class="st38" d="M272.3 445.4C-72.6 679.9 556.7 852.4 590.5 751.8c208.5-620.6 95.1-525.7 181.7-461C858.7 355.5 905.5 569 855.1 660 801.7 756.3 392.3 363.8 272.3 445.4z" class="undefined"/><path class="st39" d="M268.7 452.4C-80.2 690.7 557.2 856.9 593.2 754.5c223.3-633.7 98.1-532 184.9-463.9s130.4 284.4 75.4 375.7C796.1 761.6 388.3 370.8 268.7 452.4z" class="undefined"/><path class="st40" d="M265.1 459.5C-87.7 701.5 557.6 861.4 596 757.2 834 110.5 697 219 784 290.5c87 71.5 127.5 290.7 67.9 382.2C790.5 767 384.2 377.8 265.1 459.5z" class="undefined"/><path class="st41" d="M261.5 466.5C-95.2 712.3 558.1 865.9 598.7 759.9c252.8-659.6 104-544.5 191.2-469.6S914.5 587.4 850.3 679C784.8 772.5 380.2 384.7 261.5 466.5z" class="undefined"/><path class="st42" d="M257.9 473.6c-360.7 249.6 300.6 396.9 343.5 289C869.1 90.2 708.4 211.8 795.8 290.1c87.4 78.3 121.6 303.6 52.9 395.2C779.1 778.1 376.2 391.7 257.9 473.6z" class="undefined"/><path class="st43" d="M254.3 480.6C-110.3 734 558.9 875 604.2 765.2 886.6 80.2 714.1 208.3 801.7 290c87.7 81.7 118.7 310.1 45.4 401.6C773.4 783.8 372.2 398.7 254.3 480.6z" class="undefined"/><path class="st44" d="M250.7 487.6c-368.5 257.2 308.6 392 356.2 280.3C904 70.2 719.8 204.7 807.7 289.8c87.9 85.1 115.8 316.7 37.9 408.1C767.6 789.6 368.1 405.7 250.7 487.6z" class="undefined"/><path class="st45" d="M247.2 494.7c-372.4 261 312.6 389.5 362.5 275.9 311.8-710.2 115.8-569.4 203.9-481C901.7 378.1 926.4 613 844 704.2 761.7 795.4 364.1 412.7 247.2 494.7z" class="undefined"/><path class="st46" d="M243.6 501.7c-376.3 264.9 316.6 387.1 368.8 271.6C939 50.6 731.2 197.6 819.5 289.4c88.3 91.9 109.8 330.1 22.9 421.1C755.8 801.3 360.1 419.7 243.6 501.7z" class="undefined"/><path class="st47" d="M240 508.8c-380.1 268.7 320.6 384.7 375.2 267.2C956.4 40.8 736.8 194 825.4 289.3s106.8 336.8 15.4 427.6C749.9 807.3 356.1 426.7 240 508.8z" class="undefined"/><path class="st48" d="M236.4 515.8c-384 272.6 324.6 382.3 381.5 262.8C973.8 31.2 742.5 190.4 831.3 289.1s103.7 343.6 7.9 434.1C743.9 813.3 352 433.7 236.4 515.8z" class="undefined"/><path class="st49" d="M232.8 522.8c-387.4 277.1 328.6 380 387.8 258.5C991.2 21.5 748.2 186.9 837.2 288.9c89 102 100.6 350.4 0.4 440.6C737.9 819.3 348.2 440.9 232.8 522.8z" class="undefined"/><path class="st50" d="M229.2 529.9C-162.2 810.6 561.8 907.5 623.4 784c385.1-772 130.6-600.7 219.8-495.2 89.2 105.4 97.4 357.3-7.1 447.1C731.8 825.4 344.1 447.8 229.2 529.9z" class="undefined"/><path class="st51" d="M834.5 742.2C725.6 831.6 340 454.7 225.6 536.9c-395.5 284.3 336.5 375.3 400.5 249.8C1025.8 2.4 759.6 179.7 849 288.6 938.5 397.4 943.3 652.7 834.5 742.2z" class="undefined"/><path class="st51" d="M914.6 536.9c33.2 276.1-112.2 235.3-249 249 -350.7 35.3-146.6-109-222.1-224.1 -151-230.3 39.8-223.6 170.9-265.2C947.8 190.9 898.1 400.4 914.6 536.9z" class="undefined"/><path class="st52" d="M916.2 536.9c35.2 278.5-112.9 237.2-250.7 250.7 -354.1 34.6-147.6-109.8-223.5-225.7 -152.5-232.8 40.4-224.1 172.3-266.3C949.4 188.5 898.9 399.6 916.2 536.9z" class="undefined"/><path class="st53" d="M917.8 536.9C954.9 817.8 804.2 776 665.5 789.2 308 823.1 516.9 678.6 440.6 562c-153.9-235.3 41.1-224.6 173.7-267.3C951 186.2 899.8 398.9 917.8 536.9z" class="undefined"/><path class="st54" d="M919.4 536.9c39.1 283.3-114.3 241-253.9 253.9C304.5 824 515.9 679.4 439.2 562 283.9 324.3 481 336.9 614.3 293.6 952.6 183.8 900.6 398.2 919.4 536.9z" class="undefined"/><path class="st54" d="M921.1 536.9c41 285.7-115 242.9-255.5 255.5C301.1 825 515 680.2 437.8 562 281 321.8 480.3 336.5 614.3 292.6 954.2 181.4 901.4 397.4 921.1 536.9z" class="undefined"/><path class="st55" d="M922.7 536.9c43 288.1-115.8 244.8-257.2 257.2 -367.8 31.8-151.5-113-229.1-232C278.2 319.4 479.5 336 614.3 291.5 955.8 179 902.2 396.7 922.7 536.9z" class="undefined"/><path class="st56" d="M924.3 536.9c44.9 290.5-116.5 246.7-258.8 258.8C294.3 826.8 513 681.9 435 562.1c-159.6-245.2 43.8-226.6 179.4-271.6C957.4 176.7 903 396 924.3 536.9z" class="undefined"/><path class="st57" d="M925.9 536.9c46.9 292.9-117.2 248.5-260.4 260.4 -374.7 30.4-153.5-114.6-232-235.2 -161.1-247.7 44.5-227 180.8-272.7C959 174.3 903.8 395.2 925.9 536.9z" class="undefined"/><path class="st58" d="M927.6 536.9c48.2 295.4-117.9 250.4-262.1 262C287.5 828.7 511 683.5 432.1 562.2c-162.5-250.1 45.1-227.5 182.2-273.7C960.6 171.9 904.3 394.5 927.6 536.9z" class="undefined"/><path class="st59" d="M929.2 536.9c50.1 297.8-118.6 252.3-263.7 263.7C284 829.6 510.1 684.4 430.7 562.3c-163.9-252.6 45.8-228 183.6-274.8C962.2 169.6 905.1 393.8 929.2 536.9z" class="undefined"/><path class="st60" d="M930.8 536.9c52 300.2-119.3 254.2-265.3 265.3 -384.9 28.4-156.4-117-236.2-239.9 -165.4-255.1 46.5-228.5 185-275.9C963.8 167.2 905.9 393.1 930.8 536.9z" class="undefined"/><path class="st61" d="M932.5 536.9c53.9 302.6-120 256.1-266.9 266.9C277.2 831.5 508.1 686 427.9 562.3c-166.8-257.6 47.1-229 186.4-276.9C965.4 164.8 906.7 392.4 932.5 536.9z" class="undefined"/><path class="st62" d="M934.1 536.9c55.8 305-120.8 258-268.6 268.6 -391.7 27-158.4-118.6-239-243.1 -168.2-260.1 47.8-229.5 187.8-278C967 162.5 907.5 391.6 934.1 536.9z" class="undefined"/><path class="st63" d="M935.7 536.9c57.8 307.5-121.5 259.9-270.2 270.2 -395.2 26.3-159.4-119.4-240.5-244.7 -169.7-262.6 48.5-230 189.3-279.1C968.6 160.1 908.3 390.9 935.7 536.9z" class="undefined"/><path class="st64" d="M937.3 536.9C997 846.8 815.1 798.7 665.5 808.7c-398.6 25.6-160.4-120.2-241.9-246.3 -171.1-265 49.2-230.5 190.7-280.1C970.2 157.7 909.1 390.2 937.3 536.9z" class="undefined"/><path class="st65" d="M939 536.9c61.6 312.3-122.9 263.7-273.4 273.4 -402 24.9-161.4-121-243.3-247.8 -172.5-267.5 49.8-231 192.1-281.2C971.8 155.3 909.9 389.4 939 536.9z" class="undefined"/><path class="st66" d="M940.6 536.9C1004.1 851.6 817 802.5 665.5 812c-405.4 24.2-162.3-121.8-244.7-249.4 -174-270 50.5-231.5 193.5-282.3C973.4 153 910.7 388.7 940.6 536.9z" class="undefined"/><path class="st67" d="M942.2 536.9c65.5 317.1-124.3 267.5-276.7 276.7 -408.8 23.5-163.3-122.6-246.1-251C244 290.1 470.6 330.6 614.3 279.2 975 150.6 911.5 388 942.2 536.9z" class="undefined"/><path class="st68" d="M943.8 536.9c67.4 319.5-125.1 269.4-278.3 278.3C253.3 838 501.2 691.8 418 562.6c-176.8-275 51.8-232.4 196.3-284.4C976.6 148.2 912.3 387.3 943.8 536.9z" class="undefined"/><path class="st69" d="M945.5 536.9c69.3 321.9-125.8 271.3-279.9 279.9C249.9 839 500.2 692.7 416.6 562.7c-178.3-277.5 52.5-232.9 197.8-285.5C978.2 145.9 913.1 386.5 945.5 536.9z" class="undefined"/><path class="st70" d="M947.1 536.9c71.3 324.3-126.5 273.2-281.6 281.6 -419.1 21.4-166.3-125-250.4-255.8 -179.7-279.9 53.2-233.4 199.2-286.5C979.8 143.5 913.9 385.8 947.1 536.9z" class="undefined"/><path class="st71" d="M948.7 536.9c73.2 326.7-127.2 275.1-283.2 283.2C243 840.9 498.3 694.3 413.8 562.7c-181.2-282.4 53.9-233.9 200.6-287.6C981.4 141.1 914.7 385.1 948.7 536.9z" class="undefined"/><path class="st72" d="M950.3 536.9c75.2 329.1-127.9 277-284.8 284.8 -425.9 20.1-168.2-126.6-253.2-258.9 -182.6-284.9 54.5-234.4 202-288.7C983 138.8 915.5 384.3 950.3 536.9z" class="undefined"/><path class="st73" d="M952 536.9c77.1 331.6-128.6 278.9-286.4 286.4C236.2 842.7 496.3 696 410.9 562.8c-184-287.4 55.2-234.9 203.4-289.7C984.6 136.4 916.3 383.6 952 536.9z" class="undefined"/><path class="st74" d="M953.6 536.9c79.1 334-129.3 280.8-288.1 288.1 -432.8 18.7-170.2-128.2-256-262.1C224 273 465.4 327.5 614.3 272.1 986.2 134 917.1 382.9 953.6 536.9z" class="undefined"/><path class="st75" d="M955.2 536.9c81 336.4-130.1 282.7-289.7 289.7 -436.2 18-171.2-129-257.4-263.7C221.2 270.6 464.6 327 614.3 271 987.8 131.6 917.9 382.1 955.2 536.9z" class="undefined"/><path class="st75" d="M956.8 536.9c83 338.8-130.8 284.6-291.3 291.3 -439.6 17.3-172.2-129.8-258.8-265.3C218.3 268.1 463.9 326.6 614.3 270 989.4 129.3 918.8 381.4 956.8 536.9z" class="undefined"/><path class="st76" d="M958.5 536.9c85 341.2-131.5 286.5-293 292.9 -443 16.6-173.1-130.6-260.3-266.9 -189.8-297.3 57.9-236.8 209.1-294C991 126.9 919.6 380.7 958.5 536.9z" class="undefined"/><path class="st77" d="M960.1 536.9c86.9 343.6-132.2 288.4-294.6 294.6C219.1 847.4 491.4 700.1 403.8 563 212.6 263.2 462.4 325.7 614.3 268 992.6 124.5 920.4 380 960.1 536.9z" class="undefined"/><path class="st78" d="M961.7 536.9c88.9 346-132.9 290.3-296.2 296.2 -449.9 15.2-175.1-132.2-263.1-270 -192.6-302.3 59.2-237.8 211.9-296.1C994.2 122.2 921.2 379.2 961.7 536.9z" class="undefined"/><path class="st79" d="M963.4 536.9c90.9 348.4-133.6 292.2-297.8 297.8C212.3 849.3 489.4 701.8 401 563.1c-194.1-304.8 59.9-238.3 213.3-297.2C995.8 119.8 922 378.5 963.4 536.9z" class="undefined"/><path class="st80" d="M965 536.9c92.8 350.8-134.3 294.1-299.5 299.5 -456.7 13.8-177.1-133.7-265.9-273.2 -195.5-307.2 60.6-238.8 214.7-298.3C997.4 117.4 922.9 377.7 965 536.9z" class="undefined"/><path class="st81" d="M966.6 536.9c94.8 353.2-135.1 296-301.1 301.1 -460.1 13.1-178-134.5-267.3-274.8 -196.9-309.7 61.2-239.3 216.1-299.3C999 115.1 923.7 377 966.6 536.9z" class="undefined"/><path class="st82" d="M968.2 536.9c96.8 355.6-135.8 297.8-302.7 302.7 -463.5 12.5-179-135.3-268.8-276.4C198.4 251 458.7 323.4 614.3 262.8 1000.6 112.7 924.5 376.3 968.2 536.9z" class="undefined"/><path class="st83" d="M969.9 536.9c98.8 358-136.5 299.7-304.3 304.3 -466.9 11.8-180-136.1-270.2-278 -199.8-314.7 62.6-240.3 219-301.5C1002.2 110.3 925.3 375.5 969.9 536.9z" class="undefined"/><path class="st84" d="M971.5 536.9c100.8 360.4-137.2 301.6-306 306 -470.4 11.1-181-136.9-271.6-279.6 -201.2-317.2 63.3-240.8 220.4-302.5C1003.8 107.9 926.2 374.8 971.5 536.9z" class="undefined"/><path class="st85" d="M973.1 536.9c102.8 362.7-137.9 303.5-307.6 307.6 -473.8 10.4-182-137.7-273-281.1 -202.7-319.7 63.9-241.3 221.8-303.6C1005.4 105.6 927 374.1 973.1 536.9z" class="undefined"/><path class="st86" d="M974.7 536.9c104.8 365.1-138.6 305.4-309.2 309.2 -477.2 9.7-183-138.5-274.4-282.7C187 241.3 455.7 321.6 614.3 258.7 1007 103.2 927.8 373.3 974.7 536.9z" class="undefined"/><path class="st87" d="M976.4 536.9C1083.8 904.2 837 844.2 665.5 847.8c-480.6 9-183.9-139.3-275.8-284.3C184.1 238.8 455 321.2 614.3 257.7 1008.6 100.8 929 372.5 976.4 536.9z" class="undefined"/><path class="st88" d="M978 536.9c109.4 369.7-140.1 309.2-312.5 312.5 -484 8.3-184.9-140.1-277.2-285.9 -207-327.1 65.9-242.7 226.1-306.8C1010.2 98.5 929.8 371.8 978 536.9z" class="undefined"/><path class="st89" d="M979.6 536.9C1091 909 838.8 848 665.5 851c-487.5 7.6-185.9-140.9-278.7-287.5 -208.4-329.6 66.6-243.2 227.5-307.9C1011.8 96.1 930.6 371 979.6 536.9z" class="undefined"/><path class="st90" d="M981.2 536.9c113.3 374.5-141.5 313-315.7 315.7 -490.9 6.9-186.9-141.7-280.1-289.1 -209.9-332.1 67.3-243.7 228.9-308.9C1013.4 93.7 931.4 370.3 981.2 536.9z" class="undefined"/><path class="st91" d="M982.9 536.9c115.3 376.9-142.2 314.9-317.3 317.3C171.2 860.5 477.7 711.7 384 563.6 172.7 229 452 319.4 614.3 253.6 1015 91.4 932.2 369.6 982.9 536.9z" class="undefined"/><path class="st92" d="M984.5 536.9c117.3 379.3-142.9 316.8-319 319 -497.7 5.5-188.8-143.3-282.9-292.2 -212.7-337 68.6-244.7 231.7-311.1C1016.6 89 933 368.8 984.5 536.9z" class="undefined"/><path class="st93" d="M986.1 536.9c119.2 381.7-143.6 318.7-320.6 320.6 -501.1 4.8-189.8-144.1-284.3-293.8C167 224.2 450.5 318.5 614.3 251.5 1018.2 86.6 933.8 368.1 986.1 536.9z" class="undefined"/><path class="st94" d="M987.7 536.9C1108.9 921 843.4 857.5 665.5 859.1 161 863.3 474.7 714.2 379.8 563.7c-215.6-342 70-245.7 234.5-313.2C1019.8 84.3 934.6 367.4 987.7 536.9z" class="undefined"/><path class="st95" d="M989.4 536.9c123.1 386.5-145.1 322.5-323.9 323.8 -508 3.5-191.8-145.7-287.2-297 -217-344.5 70.6-246.2 236-314.3C1021.4 81.9 935.5 366.6 989.4 536.9z" class="undefined"/><path class="st96" d="M991 536.9c125.1 388.9-145.8 324.4-325.5 325.5C154.1 865.2 472.8 715.9 377 563.8c-218.5-347 71.3-246.6 237.4-315.3C1023 79.5 936.3 365.9 991 536.9z" class="undefined"/><path class="st97" d="M992.6 536.9c127 391.3-146.5 326.3-327.1 327.1 -514.8 2.1-193.7-147.3-290-300.2 -219.9-349.4 72-247.1 238.8-316.4C1024.6 77.1 937.1 365.2 992.6 536.9z" class="undefined"/><path class="st98" d="M994.3 536.9c129 393.7-147.2 328.2-328.7 328.7C147.3 867 470.8 717.6 374.1 563.9 152.8 212 446.8 316.3 614.3 246.4 1026.2 74.8 937.9 364.4 994.3 536.9z" class="undefined"/><path class="st99" d="M995.9 536.9C1126.8 933 848 867 665.5 867.3 143.9 868 469.8 718.4 372.7 563.9 149.9 209.5 446 315.8 614.3 245.4 1027.8 72.4 938.7 363.7 995.9 536.9z" class="undefined"/><path class="st100" d="M997.5 536.9c132.9 398.5-148.6 332-332 332 -525.1 0-196.7-149.7-294.2-304.9 -224.2-356.9 74-248.6 243-319.6C1029.4 70 939.5 363 997.5 536.9z" class="undefined"/><path class="st101" d="M993 521.5c183 22.6-265.5 416.6-366.9 265.2 -172.4-257.3-290.6-67.5-290.6-249.8 0-182.3 102.8-219.9 251.1-325.8C804.6 55.6 772.7 494.3 993 521.5z" class="undefined"/><path class="st102" d="M994 519.7c184.1 22.8-267.1 420.5-367.9 269.4 -171.2-256.5-292.7-68.8-292.7-252.2 0-183.4 105.2-218.8 251.7-325.6C802.5 52.9 774.3 492.6 994 519.7z" class="undefined"/><path class="st103" d="M995 518c185.3 22.9-268.7 424.3-369 273.6C456 536 331.2 721.5 331.2 536.9c0-184.6 107.6-217.8 252.3-325.4C800.4 50.2 775.9 490.9 995 518z" class="undefined"/><path class="st104" d="M996.1 516.2c186.4 23.1-270.4 428.2-370 277.9 -168.9-254.8-297-71.4-297-257.2 0-185.8 109.9-216.7 252.9-325.3C798.2 47.5 777.5 489.1 996.1 516.2z" class="undefined"/><path class="st105" d="M997.1 514.4c187.5 23.3-272 432.1-371 282.1 -167.8-254-299.2-72.6-299.2-259.6 0-187 112.3-215.7 253.5-325.1C796.1 44.8 779.1 487.4 997.1 514.4z" class="undefined"/><path class="st106" d="M998.1 512.7c188.7 23.5-273.6 436-372 286.4 -166.6-253.1-301.3-73.9-301.3-262.1 0-188.2 114.6-214.7 254.1-324.9C794 42 780.7 485.7 998.1 512.7z" class="undefined"/><path class="st107" d="M999.2 510.9c189.8 23.6-275.3 439.9-373.1 290.6 -165.5-252.3-303.5-75.2-303.5-264.6 0-189.4 117-213.8 254.7-324.8C791.9 39.2 782.3 484 999.2 510.9z" class="undefined"/><path class="st108" d="M1000.2 509.1c190.9 23.8-276.9 443.7-374.1 294.9 -164.4-251.5-305.7-76.5-305.7-267.1 0-190.6 119.3-212.8 255.3-324.6C789.8 36.4 783.9 482.2 1000.2 509.1z" class="undefined"/><path class="st109" d="M1001.2 507.3c192.1 24-278.5 447.6-375.1 299.1 -163.2-250.6-307.8-77.7-307.8-269.5 0-191.8 121.6-211.9 255.9-324.5C787.6 33.6 785.5 480.5 1001.2 507.3z" class="undefined"/><path class="st110" d="M1002.2 505.6c193.2 24.2-280.1 451.5-376.1 303.3 -162.1-249.8-310-79-310-272 0-193 123.9-211 256.5-324.3C785.5 30.8 787.1 478.8 1002.2 505.6z" class="undefined"/><path class="st111" d="M1003.3 503.8c194.3 24.3-281.8 455.4-377.2 307.6C465.2 562.4 314 731.1 314 536.9c0-194.2 126.2-210.1 257.1-324.1C783.3 27.9 788.7 477 1003.3 503.8z" class="undefined"/><path class="st112" d="M1004.3 502c195.5 24.5-283.4 459.3-378.2 311.8 -159.8-248.1-314.3-81.6-314.3-276.9 0-195.3 128.5-209.2 257.7-324C781.2 25 790.3 475.3 1004.3 502z" class="undefined"/><path class="st113" d="M1005.3 500.2c196.6 24.7-285 463.1-379.2 316.1C467.5 569 309.7 733.4 309.7 536.9c0-196.5 130.8-208.4 258.3-323.8C779 22.1 791.9 473.6 1005.3 500.2z" class="undefined"/><path class="st114" d="M1006.3 498.5c197.8 24.8-286.7 467-380.2 320.3 -157.5-246.4-318.6-84.1-318.6-281.9 0-197.7 133.1-207.5 258.9-323.6C776.8 19.1 793.5 471.9 1006.3 498.5z" class="undefined"/><path class="st115" d="M1007.4 496.7c198.9 25-288.3 470.9-381.3 324.5 -156.3-245.6-320.7-85.4-320.7-284.3 0-198.9 135.4-206.7 259.5-323.5C774.7 16.1 795.1 470.1 1007.4 496.7z" class="undefined"/><path class="st116" d="M1008.4 494.9c200 25.2-289.9 474.8-382.3 328.8C470.9 579 303.2 737 303.2 536.9c0-200.1 137.6-205.9 260.1-323.3C772.5 13.2 796.7 468.4 1008.4 494.9z" class="undefined"/><path class="st117" d="M1009.4 493.2c201.2 25.4-291.5 478.7-383.3 333 -154.1-243.9-325-88-325-289.3 0-201.3 139.9-205.1 260.7-323.2C770.2 10.1 798.3 466.7 1009.4 493.2z" class="undefined"/><path class="st118" d="M1010.4 491.4c202.3 25.5-293.2 482.5-384.3 337.3 -152.9-243.1-327.2-89.3-327.2-291.7 0-202.5 142.1-204.3 261.3-323C768 7.1 799.9 465 1010.4 491.4z" class="undefined"/><path class="st119" d="M1011.5 489.6c203.4 25.7-294.8 486.4-385.4 341.5 -151.8-242.2-329.4-90.5-329.4-294.2 0-203.7 144.3-203.6 261.9-322.8C765.8 4.1 801.5 463.2 1011.5 489.6z" class="undefined"/><path class="st120" d="M1012.5 487.8c204.6 25.9-296.4 490.3-386.4 345.8 -150.6-241.4-331.5-91.8-331.5-296.7 0-204.9 146.5-202.8 262.5-322.7C763.5 1 803.1 461.5 1012.5 487.8z" class="undefined"/><path class="st121" d="M1013.5 486.1c205.7 26.1-298.1 494.2-387.4 350C476.6 595.5 292.4 743 292.4 536.9c0-206.1 148.7-202.1 263.1-322.5C761.2-2.1 804.7 459.8 1013.5 486.1z" class="undefined"/><path class="st122" d="M1014.5 484.3c206.8 26.2-299.7 498.1-388.4 354.2 -148.3-239.7-335.8-94.4-335.8-301.6 0-207.2 150.9-201.3 263.7-322.3C758.9-5.2 806.3 458 1014.5 484.3z" class="undefined"/><path class="st123" d="M1015.6 482.5c208 26.4-301.3 501.9-389.5 358.5 -147.2-238.9-338-95.7-338-304.1 0-208.4 153.1-200.6 264.3-322.2C756.6-8.4 807.9 456.3 1015.6 482.5z" class="undefined"/><path class="st124" d="M1016.6 480.8c209.1 26.6-302.9 505.8-390.5 362.7C480 605.4 286 746.5 286 536.9c0-209.6 155.3-199.9 264.9-322C754.3-11.5 809.6 454.6 1016.6 480.8z" class="undefined"/><path class="st125" d="M1017.6 479c210.2 26.8-304.6 509.7-391.5 367 -144.9-237.2-342.3-98.2-342.3-309 0-210.8 157.4-199.2 265.5-321.8C751.9-14.7 811.2 452.9 1017.6 479z" class="undefined"/><path class="st126" d="M1018.6 477.2c211.4 26.9-306.2 513.6-392.5 371.2 -143.8-236.4-344.4-99.5-344.4-311.5 0-212 159.6-198.6 266.1-321.7C749.5-17.9 812.8 451.1 1018.6 477.2z" class="undefined"/><path class="st127" d="M1019.7 475.4c212.5 27.1-307.8 517.4-393.6 375.4 -142.6-235.5-346.6-100.8-346.6-314 0-213.2 161.7-197.9 266.7-321.5C747.1-21.1 814.4 449.4 1019.7 475.4z" class="undefined"/><path class="st128" d="M1020.7 473.7c213.7 27.3-309.5 521.3-394.6 379.7C484.6 618.7 277.3 751.3 277.3 536.9c0-214.4 163.8-197.2 267.3-321.4C744.7-24.4 816 447.7 1020.7 473.7z" class="undefined"/><path class="st129" d="M1021.7 471.9c214.8 27.4-311.1 525.2-395.6 383.9C485.8 622 275.2 752.5 275.2 536.9c0-215.6 166-196.6 267.9-321.2C742.2-27.6 817.6 446 1021.7 471.9z" class="undefined"/><path class="st130" d="M1022.7 470.1c215.9 27.6-312.7 529.1-396.6 388.2C486.9 625.3 273 753.7 273 536.9c0-216.8 168-195.9 268.5-321C739.8-30.9 819.2 444.2 1022.7 470.1z" class="undefined"/><path class="st131" d="M1023.8 468.4c217.1 27.8-314.3 533-397.7 392.4 -138-232.2-355.2-105.9-355.2-323.8C270.9 319 441 341.6 540 216 737.3-34.2 820.8 442.5 1023.8 468.4z" class="undefined"/><path class="st132" d="M1024.8 466.6c218.2 28-316 536.8-398.7 396.6C489.2 631.9 268.7 756.1 268.7 536.9c0-219.1 172.2-194.7 269.7-320.7C734.8-37.5 822.4 440.8 1024.8 466.6z" class="undefined"/><path class="st133" d="M1025.8 464.8c219.3 28.1-317.6 540.7-399.7 400.9C490.3 635.2 266.6 757.2 266.6 536.9c0-220.3 174.3-194.1 270.3-320.5C732.2-40.8 824 439 1025.8 464.8z" class="undefined"/><path class="st134" d="M1026.8 463c220.5 28.3-319.2 544.6-400.8 405.1C491.5 638.5 264.4 758.4 264.4 536.9c0-221.5 176.3-193.5 270.9-320.4C729.6-44.2 825.6 437.3 1026.8 463z" class="undefined"/><path class="st135" d="M1027.9 461.3c221.6 28.5-320.9 548.5-401.8 409.4 -133.5-228.8-363.8-111-363.8-333.7 0-222.7 178.4-192.8 271.5-320.2C727-47.5 827.2 435.6 1027.9 461.3z" class="undefined"/><path class="st136" d="M1028.9 459.5c222.7 28.7-322.5 552.4-402.8 413.6 -132.3-228-366-112.3-366-336.2 0-223.9 180.4-192.2 272.1-320.1C724.4-50.9 828.8 433.9 1028.9 459.5z" class="undefined"/><path class="st137" d="M1029.9 457.7c223.9 28.8-324.1 556.2-403.8 417.9C494.9 648.4 258 762 258 536.9c0-225.1 182.4-191.6 272.7-319.9C721.7-54.3 830.4 432.1 1029.9 457.7z" class="undefined"/><path class="st138" d="M1031 455.9c225 29-325.8 560.1-404.9 422.1 -130-226.3-370.3-114.8-370.3-341.1 0-226.3 184.4-191 273.3-319.7C719-57.7 832 430.4 1031 455.9z" class="undefined"/><path class="st139" d="M1032 454.2c226.1 29.2-327.4 564-405.9 426.3C497.2 655.1 253.6 764.4 253.6 536.9c0-227.5 186.4-190.5 273.9-319.6C716.3-61.1 833.6 428.7 1032 454.2z" class="undefined"/><path class="st140" d="M1033 452.4c227.3 29.3-329 567.9-406.9 430.6C498.4 658.4 251.5 765.6 251.5 536.9c0-228.7 188.4-189.9 274.5-319.4C713.5-64.5 835.2 427 1033 452.4z" class="undefined"/><path class="st141" d="M1034 450.6c228.4 29.5-330.6 571.8-407.9 434.8C499.5 661.7 249.3 766.8 249.3 536.9c0-229.9 190.3-189.3 275.1-319.2C710.8-67.9 836.8 425.2 1034 450.6z" class="undefined"/><path class="st142" d="M1035.1 448.9c229.6 29.7-332.3 575.6-409 439.1C500.6 665 247.2 768 247.2 536.9c0-231 192.3-188.7 275.7-319.1C707.9-71.4 838.4 423.5 1035.1 448.9z" class="undefined"/><path class="st143" d="M1036.1 447.1c230.7 29.9-333.9 579.5-410 443.3C501.8 668.3 245 769.1 245 536.9c0-232.2 194.3-188.1 276.3-318.9C705.1-74.8 840 421.8 1036.1 447.1z" class="undefined"/><path class="st144" d="M1037.1 445.3c231.8 30-335.5 583.4-411 447.5C502.9 671.6 242.9 770.3 242.9 536.9c0-233.4 196.2-187.6 276.9-318.8C702.2-78.3 841.6 420.1 1037.1 445.3z" class="undefined"/><path class="st145" d="M1038.1 443.5c233 30.2-337.2 587.3-412 451.8 -122-220.4-385.4-123.8-385.4-358.4 0-234.6 198.1-187 277.5-318.6C699.3-81.8 843.2 418.3 1038.1 443.5z" class="undefined"/><path class="st146" d="M1039.2 441.8c234.1 30.4-338.8 591.2-413.1 456C505.2 678.2 238.6 772.7 238.6 536.9c0-235.8 200-186.4 278.1-318.4C696.4-85.3 844.8 416.6 1039.2 441.8z" class="undefined"/><path class="st147" d="M1040.2 440c235.2 30.6-340.4 595-414.1 460.3C506.4 681.5 236.4 773.9 236.4 536.9s201.9-185.8 278.7-318.3C693.4-88.8 846.4 414.9 1040.2 440z" class="undefined"/><path class="st148" d="M1041.2 438.2c236.4 30.7-342 598.9-415.1 464.5C507.5 684.8 234.2 775.1 234.2 536.9c0-238.2 203.8-185.3 279.3-318.1C690.4-92.3 848 413.1 1041.2 438.2z" class="undefined"/><path class="st149" d="M1042.2 436.5c237.5 30.9-343.7 602.8-416.1 468.8 -117.4-217.1-394-128.9-394-368.3 0-239.4 205.7-184.7 279.9-317.9C687.3-95.8 849.6 411.4 1042.2 436.5z" class="undefined"/><path class="st150" d="M1043.3 434.7c238.6 31.1-345.3 606.7-417.2 473C509.8 691.5 229.9 777.5 229.9 536.9c0-240.6 207.6-184.1 280.5-317.8C684.2-99.3 851.2 409.7 1043.3 434.7z" class="undefined"/><path class="st151" d="M1044.3 432.9c239.8 31.3-346.9 610.6-418.2 477.2C510.9 694.8 227.8 778.7 227.8 536.9c0-241.8 209.4-183.6 281.1-317.6C681.1-102.8 852.8 408 1044.3 432.9z" class="undefined"/><path class="st0" d="M1045.3 431.1c240.9 31.4-348.6 614.4-419.2 481.5 -114-214.5-400.5-132.8-400.5-375.7 0-242.9 211.3-183 281.7-317.5C678-106.4 854.4 406.2 1045.3 431.1z" class="undefined"/><path class="st101" d="M993 521.5c183 22.6-265.5 416.6-366.9 265.2 -172.4-257.3-290.6-67.5-290.6-249.8 0-182.3 102.8-219.9 251.1-325.8C804.6 55.6 772.7 494.3 993 521.5z" class="undefined"/><path class="st102" d="M994 519.7c184.1 22.8-267.1 420.5-367.9 269.4 -171.2-256.5-272.6-68-272.6-251.4 0-183.4 85.1-219.6 231.6-326.4C802.5 52.9 774.3 492.6 994 519.7z" class="undefined"/><path class="st103" d="M995 518c185.3 22.9-268.7 424.3-369 273.6C456 536 371.4 723.1 371.4 538.5c0-184.6 67.4-219.3 212.2-327C800.4 50.2 775.9 490.9 995 518z" class="undefined"/><path class="st104" d="M996.1 516.2c186.4 23.1-270.4 428.2-370 277.9 -168.9-254.8-236.8-69-236.8-254.8S439 320.2 582 211.6C798.2 47.5 777.5 489.1 996.1 516.2z" class="undefined"/><path class="st105" d="M997.1 514.4c187.5 23.3-272 432.1-371 282.1 -167.8-254-218.8-69.5-218.8-256.5s31.9-218.9 173.2-328.3C796.1 44.8 779.1 487.4 997.1 514.4z" class="undefined"/><path class="st106" d="M998.1 512.7c188.7 23.5-273.6 436-372 286.4 -166.6-253.1-200.9-70-200.9-258.2S439.4 322.2 578.9 212C794 42 780.7 485.7 998.1 512.7z" class="undefined"/><path class="st107" d="M999.2 510.9c189.8 23.6-275.3 439.9-373.1 290.6 -165.5-252.3-183-70.4-183-259.8s-3.6-218.5 134.2-329.5C791.9 39.2 782.3 484 999.2 510.9z" class="undefined"/><path class="st108" d="M1000.2 509.1c190.9 23.8-276.9 443.7-374.1 294.9C461.7 552.5 461 733 461 542.5s-21.3-218.4 114.7-330.2C789.8 36.4 783.9 482.2 1000.2 509.1z" class="undefined"/><path class="st109" d="M1001.2 507.3c192.1 24-278.5 447.6-375.1 299.1C462.9 555.8 479 735 479 543.2S439.9 325 574.2 212.5C787.6 33.6 785.5 480.5 1001.2 507.3z" class="undefined"/><path class="st110" d="M1002.2 505.6c193.2 24.2-280.1 451.5-376.1 303.3C464 559.1 496.9 737 496.9 544s-56.8-218.1 75.8-331.4C785.5 30.8 787.1 478.8 1002.2 505.6z" class="undefined"/><path class="st111" d="M1003.3 503.8c194.3 24.3-281.8 455.4-377.2 307.6C465.2 562.4 514.8 739 514.8 544.8s-74.6-218 56.3-332C783.3 27.9 788.7 477 1003.3 503.8z" class="undefined"/><path class="st112" d="M1004.3 502c195.5 24.5-283.4 459.3-378.2 311.8 -159.8-248.1-93.3-72.9-93.3-268.2 0-195.3-92.4-217.9 36.8-332.7C781.2 25 790.3 475.3 1004.3 502z" class="undefined"/><path class="st113" d="M1005.3 500.2c196.6 24.7-285 463.1-379.2 316.1 -158.6-247.3-75.4-73.4-75.4-269.9 0-196.5-110.2-217.9 17.3-333.3C779 22.1 791.9 473.6 1005.3 500.2z" class="undefined"/><path class="st114" d="M1006.3 498.5c197.8 24.8-286.7 467-380.2 320.3 -157.5-246.4-57.5-73.8-57.5-271.6 0-197.7-128-217.8-2.2-333.9C776.8 19.1 793.5 471.9 1006.3 498.5z" class="undefined"/><path class="st115" d="M1007.4 496.7c198.9 25-288.3 470.9-381.3 324.5 -156.3-245.6-39.5-74.3-39.5-273.2 0-198.9-145.8-217.8-21.7-334.6C774.7 16.1 795.1 470.1 1007.4 496.7z" class="undefined"/><path class="st116" d="M1008.4 494.9c200 25.2-289.9 474.8-382.3 328.8 -155.2-244.8-21.6-74.8-21.6-274.9 0-200.1-163.7-217.8-41.2-335.2C772.5 13.2 796.7 468.4 1008.4 494.9z" class="undefined"/><path class="st117" d="M1009.4 493.2c201.2 25.4-291.5 478.7-383.3 333 -154.1-243.9-3.7-75.3-3.7-276.6s-181.5-217.8-60.6-335.8C770.2 10.1 798.3 466.7 1009.4 493.2z" class="undefined"/><path class="st118" d="M1010.4 491.4c202.3 25.5-293.2 482.5-384.3 337.3 -152.9-243.1 14.3-75.8 14.3-278.3S441 332.6 560.2 213.9C768 7.1 799.9 465 1010.4 491.4z" class="undefined"/><path class="st119" d="M1011.5 489.6c203.4 25.7-294.8 486.4-385.4 341.5 -151.8-242.2 32.2-76.3 32.2-280 0-203.7-217.2-217.8-99.6-337.1C765.8 4.1 801.5 463.2 1011.5 489.6z" class="undefined"/><path class="st120" d="M1012.5 487.8c204.6 25.9-296.4 490.3-386.4 345.8 -150.6-241.4 50.1-76.8 50.1-281.6 0-204.9-235.1-217.9-119.1-337.7C763.5 1 803.1 461.5 1012.5 487.8z" class="undefined"/><path class="st121" d="M1013.5 486.1c205.7 26.1-298.1 494.2-387.4 350 -149.5-240.6 68-77.3 68-283.3s-253-217.9-138.6-338.3C761.2-2.1 804.7 459.8 1013.5 486.1z" class="undefined"/><path class="st122" d="M1014.5 484.3c206.8 26.2-299.7 498.1-388.4 354.2 -148.3-239.7 86-77.7 86-285s-270.9-218-158.1-339C758.9-5.2 806.3 458 1014.5 484.3z" class="undefined"/><path class="st123" d="M1015.6 482.5c208 26.4-301.3 501.9-389.5 358.5C478.9 602.1 730 762.8 730 554.3S441.2 336.3 552.4 214.7C756.6-8.4 807.9 456.3 1015.6 482.5z" class="undefined"/><path class="st124" d="M1016.6 480.8c209.1 26.6-302.9 505.8-390.5 362.7 -146.1-238 121.8-78.7 121.8-288.3S441.3 337 550.9 214.9C754.3-11.5 809.6 454.6 1016.6 480.8z" class="undefined"/><path class="st125" d="M1017.6 479c210.2 26.8-304.6 509.7-391.5 367 -144.9-237.2 139.8-79.2 139.8-290 0-210.8-324.6-218.3-216.5-340.9C751.9-14.7 811.2 452.9 1017.6 479z" class="undefined"/><path class="st126" d="M1018.6 477.2c211.4 26.9-306.2 513.6-392.5 371.2 -143.8-236.4 157.7-79.7 157.7-291.7 0-212-342.6-218.4-236-341.5C749.5-17.9 812.8 451.1 1018.6 477.2z" class="undefined"/><path class="st127" d="M1019.7 475.4c212.5 27.1-307.8 517.4-393.6 375.4 -142.6-235.5 175.6-80.2 175.6-293.4 0-213.2-360.5-218.5-255.5-342.1C747.1-21.1 814.4 449.4 1019.7 475.4z" class="undefined"/><path class="st128" d="M1020.7 473.7c213.7 27.3-309.5 521.3-394.6 379.7 -141.5-234.7 193.6-80.7 193.6-295.1 0-214.4-378.5-218.6-275-342.7C744.7-24.4 816 447.7 1020.7 473.7z" class="undefined"/><path class="st129" d="M1021.7 471.9c214.8 27.4-311.1 525.2-395.6 383.9C485.8 622 837.6 774.7 837.6 559.1c0-215.6-396.5-218.8-294.5-343.4C742.2-27.6 817.6 446 1021.7 471.9z" class="undefined"/><path class="st130" d="M1022.7 470.1c215.9 27.6-312.7 529.1-396.6 388.2 -139.2-233 229.4-81.6 229.4-298.4 0-216.8-414.4-218.9-314-344C739.8-30.9 819.2 444.2 1022.7 470.1z" class="undefined"/><path class="st131" d="M1023.8 468.4c217.1 27.8-314.3 533-397.7 392.4 -138-232.2 247.4-82.1 247.4-300.1 0-218-432.4-219.1-333.5-344.6C737.3-34.2 820.8 442.5 1023.8 468.4z" class="undefined"/><path class="st132" d="M1024.8 466.6c218.2 28-316 536.8-398.7 396.6 -136.9-231.3 265.3-82.6 265.3-301.8 0-219.1-450.4-219.2-352.9-345.3C734.8-37.5 822.4 440.8 1024.8 466.6z" class="undefined"/><path class="st133" d="M1025.8 464.8c219.3 28.1-317.6 540.7-399.7 400.9 -135.8-230.5 283.2-83.1 283.2-303.4 0-220.3-468.5-219.4-372.4-345.9C732.2-40.8 824 439 1025.8 464.8z" class="undefined"/><path class="st134" d="M1026.8 463c220.5 28.3-319.2 544.6-400.8 405.1C491.5 638.5 927.2 784.6 927.2 563S440.7 343.5 535.3 216.5C729.6-44.2 825.6 437.3 1026.8 463z" class="undefined"/><path class="st135" d="M1027.9 461.3c221.6 28.5-320.9 548.5-401.8 409.4 -133.5-228.8 319.1-84.1 319.1-306.8S440.6 344.1 533.8 216.7C727-47.5 827.2 435.6 1027.9 461.3z" class="undefined"/><path class="st136" d="M1028.9 459.5c222.7 28.7-322.5 552.4-402.8 413.6 -132.3-228 337-84.6 337-308.5s-522.6-220-430.9-347.8C724.4-50.9 828.8 433.9 1028.9 459.5z" class="undefined"/><path class="st137" d="M1029.9 457.7c223.9 28.8-324.1 556.2-403.8 417.9C494.9 648.4 981 790.5 981 565.4S440.4 345.3 530.7 217C721.7-54.3 830.4 432.1 1029.9 457.7z" class="undefined"/><path class="st138" d="M1031 455.9c225 29-325.8 560.1-404.9 422.1C496.1 651.8 999 792.5 999 566.2c0-226.3-558.8-220.4-469.9-349C719-57.7 832 430.4 1031 455.9z" class="undefined"/><path class="st139" d="M1032 454.2c226.1 29.2-327.4 564-405.9 426.3 -128.9-225.4 390.8-86 390.8-313.5 0-227.5-576.9-220.6-489.3-349.7C716.3-61.1 833.6 428.7 1032 454.2z" class="undefined"/><path class="st140" d="M1033 452.4c227.3 29.3-329 567.9-406.9 430.6 -127.7-224.6 408.7-86.5 408.7-315.2S439.9 347 526 217.5C713.5-64.5 835.2 427 1033 452.4z" class="undefined"/><path class="st141" d="M1034 450.6c228.4 29.5-330.6 571.8-407.9 434.8 -126.6-223.8 426.7-87 426.7-316.9s-613.1-221-528.3-350.9C710.8-67.9 836.8 425.2 1034 450.6z" class="undefined"/><path class="st142" d="M1035.1 448.9c229.6 29.7-332.3 575.6-409 439.1 -125.5-222.9 444.6-87.5 444.6-318.5 0-231-631.2-221.2-547.8-351.6C707.9-71.4 838.4 423.5 1035.1 448.9z" class="undefined"/><path class="st143" d="M1036.1 447.1c230.7 29.9-333.9 579.5-410 443.3 -124.3-222.1 462.5-88 462.5-320.2 0-232.2-649.3-221.4-567.3-352.2C705.1-74.8 840 421.8 1036.1 447.1z" class="undefined"/><path class="st144" d="M1037.1 445.3c231.8 30-335.5 583.4-411 447.5 -123.2-221.3 480.5-88.5 480.5-321.9 0-233.4-667.5-221.6-586.8-352.8C702.2-78.3 841.6 420.1 1037.1 445.3z" class="undefined"/><path class="st145" d="M1038.1 443.5c233 30.2-337.2 587.3-412 451.8 -122-220.4 498.4-89 498.4-323.6 0-234.6-685.7-221.8-606.3-353.4C699.3-81.8 843.2 418.3 1038.1 443.5z" class="undefined"/><path class="st146" d="M1039.2 441.8c234.1 30.4-338.8 591.2-413.1 456 -120.9-219.6 516.3-89.4 516.3-325.2S438.6 350.5 516.7 218.5C696.4-85.3 844.8 416.6 1039.2 441.8z" class="undefined"/><path class="st147" d="M1040.2 440c235.2 30.6-340.4 595-414.1 460.3 -119.7-218.7 534.2-89.9 534.2-326.9s-722-222.3-645.2-354.7C693.4-88.8 846.4 414.9 1040.2 440z" class="undefined"/><path class="st148" d="M1041.2 438.2c236.4 30.7-342 598.9-415.1 464.5 -118.6-217.9 552.2-90.4 552.2-328.6S438.1 351.6 513.6 218.8C690.4-92.3 848 413.1 1041.2 438.2z" class="undefined"/><path class="st149" d="M1042.2 436.5c237.5 30.9-343.7 602.8-416.1 468.8 -117.4-217.1 570.1-90.9 570.1-330.3S437.8 352.2 512 219C687.3-95.8 849.6 411.4 1042.2 436.5z" class="undefined"/><path class="st150" d="M1043.3 434.7c238.6 31.1-345.3 606.7-417.2 473 -116.3-216.2 588-91.4 588-332S437.5 352.8 510.5 219.1C684.2-99.3 851.2 409.7 1043.3 434.7z" class="undefined"/><path class="st151" d="M1044.3 432.9c239.8 31.3-346.9 610.6-418.2 477.2 -115.2-215.4 606-91.9 606-333.6S437.2 353.4 508.9 219.3C681.1-102.8 852.8 408 1044.3 432.9z" class="undefined"/><path class="st0" d="M1045.3 431.1c240.9 31.4-348.6 614.4-419.2 481.5 -114-214.5 623.9-92.4 623.9-335.3S436.9 353.9 507.3 219.5C678-106.4 854.4 406.2 1045.3 431.1z" class="undefined"/><path class="st101" d="M883.2 524.5c137 157.7-154.6 340.6-239.1 239.1C505.5 597.2 349.4 644.3 405 524.5c96.4-207.5-13.2-187.7 239.1-239.1C845.7 244.3 796.6 424.8 883.2 524.5z" class="undefined"/><path class="st104" d="M885.3 524.5c135.2 159.9-156 342.4-241.1 240C506.5 599 346.8 644.9 403.7 524.9c97-206.3-13-190.9 240.4-241.6C846.6 242.8 799.8 423.1 885.3 524.5z" class="undefined"/><path class="st106" d="M887.4 524.5c133.4 162.1-157.3 344.3-243.1 240.9C507.4 600.8 344.6 645.7 402.3 525.3c98.1-204.7-12.7-194 241.8-244.1C847.6 241.3 802.9 421.3 887.4 524.5z" class="undefined"/><path class="st152" d="M889.5 524.5c131.6 164.2-158.6 346.1-245.1 241.8 -136-163.6-302-119.9-243.3-240.6 99-203.3-12.5-197.2 243.1-246.6C848.5 239.7 806.1 419.6 889.5 524.5z" class="undefined"/><path class="st110" d="M891.5 524.5c129.4 166.7-160 347.9-247.1 242.7 -135.1-162.7-304.5-120.1-244.7-241 99.8-201.9-12.2-200.3 244.4-249.1C849.5 238.2 809 418.1 891.5 524.5z" class="undefined"/><path class="st153" d="M893.6 524.5c127.5 169-161.3 349.7-249.2 243.5C510.2 606.3 337.5 647.8 398.4 526.6 499 326 386.4 323.1 644.1 275 850.4 236.6 812 416.4 893.6 524.5z" class="undefined"/><path class="st115" d="M895.7 524.5C1021.3 695.7 733.1 876 644.5 769 511.1 608.1 335.2 648.5 397 527c101.4-199.1-11.7-206.6 247.1-254C851.4 235.1 815.1 414.7 895.7 524.5z" class="undefined"/><path class="st154" d="M897.8 524.5c123.7 173.4-164 353.3-253.2 245.3C512.1 610 332.8 649.2 395.7 527.4c102.2-197.8-11.5-209.8 248.4-256.5C852.4 233.5 818.2 413 897.8 524.5z" class="undefined"/><path class="st119" d="M899.8 524.5c121.9 175.6-165.3 355.1-255.2 246.2C513 611.8 330.4 649.9 394.4 527.8c102.9-196.4-11.2-212.9 249.7-259C853.3 232 821.3 411.3 899.8 524.5z" class="undefined"/><path class="st155" d="M901.9 524.5c120 177.8-166.6 356.9-257.2 247.1 -130.8-158-316.8-121-251.7-243.4 103.7-195-11-216.1 251-261.5C854.3 230.4 824.4 409.6 901.9 524.5z" class="undefined"/><path class="st156" d="M904 524.5c118.1 180-167.9 358.8-259.2 248 -129.9-157-319.2-121.2-253.1-243.9C496.2 335 381 309.3 644.1 264.6 855.2 228.9 827.5 407.9 904 524.5z" class="undefined"/><path class="st157" d="M906.1 524.5c116.3 182.2-169.3 360.6-261.2 248.9C515.8 617.3 323.2 651.9 390.4 529 495.6 336.7 380 306.6 644.1 262.6 856.2 227.3 830.6 406.2 906.1 524.5z" class="undefined"/><path class="st158" d="M908.1 524.5C1022.5 709 737.5 886.9 644.9 774.3 516.7 619.1 320.7 652.6 389.1 529.4c105.9-190.9-10.2-225.5 255-268.9C857.1 225.8 833.7 404.5 908.1 524.5z" class="undefined"/><path class="st159" d="M910.2 524.5C1022.8 711.1 738.3 888.7 645 775.1 517.7 621 318.3 653.3 387.8 529.8c106.6-189.5-10-228.7 256.3-271.4C858.1 224.2 836.8 402.8 910.2 524.5z" class="undefined"/><path class="st160" d="M912.3 524.5C1023 713.3 739 890.5 645.1 776 518.6 622.8 315.9 654 386.4 530.2c107.3-188.2-9.7-231.8 257.7-273.9C859 222.7 839.9 401.1 912.3 524.5z" class="undefined"/><path class="st161" d="M914.4 524.5c108.9 191-174.6 367.8-269.2 252.4 -125.6-152.3-331.7-122.2-260-246.3 108-186.8-9.5-235 259-276.4C860 221.1 843 399.4 914.4 524.5z" class="undefined"/><path class="st162" d="M916.4 524.5c107 193.2-175.9 369.6-271.2 253.3C520.5 626.5 311 655.3 383.8 531c108.6-185.5-9.2-238.1 260.3-278.8C860.9 219.6 846.1 397.6 916.4 524.5z" class="undefined"/><path class="st163" d="M918.5 524.5C1023.7 719.9 741.2 896 645.3 778.7 521.4 628.3 308.5 656 382.5 531.4c109.3-184.2-9-241.3 261.6-281.3C861.9 218 849.2 395.9 918.5 524.5z" class="undefined"/><path class="st164" d="M920.6 524.5C1024 722 742 897.8 645.4 779.6c-123-149.5-339.3-122.9-264.2-247.7 109.9-182.8-8.7-244.4 263-283.8C862.8 216.5 852.4 394.2 920.6 524.5z" class="undefined"/><path class="st165" d="M922.7 524.5c101.5 199.7-179.9 375.1-277.2 255.9C523.3 631.9 303.6 657.4 379.8 532.2c110.6-181.5-8.5-247.6 264.3-286.3C863.8 214.9 855.5 392.5 922.7 524.5z" class="undefined"/><path class="st166" d="M924.7 524.5c99.7 201.8-181.3 376.9-279.2 256.8C524.2 633.8 301.1 658 378.5 532.7c111.2-180.2-8.2-250.7 265.6-288.8C864.7 213.4 858.6 390.7 924.7 524.5z" class="undefined"/><path class="st167" d="M926.8 524.5c97.9 204-182.6 378.7-281.2 257.7C525.2 635.6 298.7 658.7 377.2 533.1c111.8-178.9-8-253.9 266.9-291.3C865.7 211.8 861.7 389 926.8 524.5z" class="undefined"/><path class="st168" d="M928.9 524.5C1025 730.7 745 905 645.6 783.1 526.1 637.4 296.2 659.3 375.8 533.5c112.4-177.6-7.7-257 268.3-293.7C866.6 210.3 864.9 387.2 928.9 524.5z" class="undefined"/><path class="st169" d="M931 524.5c94.3 208.3-185.3 382.3-285.3 259.5C527 639.3 293.7 660 374.5 533.9c113-176.3-7.5-260.2 269.6-296.2C867.6 208.7 868 385.5 931 524.5z" class="undefined"/><path class="st170" d="M933 524.5c92.5 210.5-186.6 384.2-287.3 260.4C528 641.1 291.2 660.6 373.2 534.3c113.6-175-7.2-263.3 270.9-298.7C868.5 207.2 871.2 383.8 933 524.5z" class="undefined"/><path class="st171" d="M935.1 524.5c90.7 212.6-187.9 386-289.3 261.2 -116.9-142.8-357.2-124.5-274-251.1 114.1-173.7-7-266.5 272.2-301.2C869.5 205.7 874.3 382 935.1 524.5z" class="undefined"/><path class="st172" d="M937.2 524.5c88.9 214.8-189.2 387.8-291.3 262.1C529.9 644.8 286.2 661.9 370.5 535.1c114.7-172.4-6.7-269.6 273.6-303.7C870.4 204.1 877.5 380.3 937.2 524.5z" class="undefined"/><path class="st173" d="M939.3 524.5c87.2 216.9-190.6 389.6-293.3 263 -115.2-140.9-362.3-125-276.8-252 115.3-171.1-6.5-272.8 274.9-306.1C871.4 202.6 880.6 378.6 939.3 524.5z" class="undefined"/><path class="st174" d="M941.3 524.5c85.4 219-191.9 391.4-295.3 263.9 -114.3-140-364.9-125.2-278.2-252.5 115.8-169.9-6.2-275.9 276.2-308.6C872.3 201 883.8 376.8 941.3 524.5z" class="undefined"/><path class="st175" d="M943.4 524.5c83.6 221.2-193.2 393.2-297.3 264.8 -113.5-139-367.5-125.5-279.6-253 116.4-168.6-6-279.1 277.5-311.1C873.3 199.5 886.9 375.1 943.4 524.5z" class="undefined"/><path class="st176" d="M945.5 524.5c81.8 223.3-194.6 395-299.3 265.7C533.6 652.1 276 664.4 365.2 536.7c116.9-167.3-5.7-282.2 278.9-313.6C874.3 197.9 890.1 373.3 945.5 524.5z" class="undefined"/><path class="st177" d="M947.6 524.5c80.1 225.5-195.9 396.8-301.3 266.6C534.5 653.9 273.5 665 363.9 537.1c117.4-166.1-5.5-285.4 280.2-316.1C875.2 196.4 893.2 371.6 947.6 524.5z" class="undefined"/><path class="st178" d="M949.6 524.5C1028 752.1 752.4 923.2 646.3 792 535.5 655.8 270.9 665.6 362.6 537.5 480.5 372.7 357.4 249 644.1 219 876.2 194.8 896.4 369.8 949.6 524.5z" class="undefined"/><path class="st179" d="M951.7 524.5c76.6 229.8-198.6 400.5-305.3 268.3 -110-135.3-378-126.6-285.1-254.9 118.4-163.6-5-291.7 282.8-321C877.1 193.3 899.6 368.1 951.7 524.5z" class="undefined"/><path class="st180" d="M953.8 524.5c74.8 231.9-199.9 402.3-307.3 269.2C537.3 659.4 265.8 666.9 359.9 538.4c118.9-162.4-4.7-294.8 284.2-323.5C878.1 191.7 902.8 366.3 953.8 524.5z" class="undefined"/><path class="st181" d="M955.9 524.5c73.1 234-201.2 404.1-309.3 270.1C538.3 661.2 263.2 667.4 358.6 538.8c119.4-161.1-4.5-298 285.5-326C879 190.2 905.9 364.6 955.9 524.5z" class="undefined"/><path class="st182" d="M957.9 524.5c71.3 236.2-202.6 405.9-311.3 271C539.2 663.1 260.7 668 357.3 539.2c119.9-159.9-4.2-301.1 286.8-328.5C880 188.6 909.1 362.9 957.9 524.5z" class="undefined"/><path class="st183" d="M960 524.5c69.6 238.3-203.9 407.7-313.3 271.9C540.1 664.9 258.1 668.6 356 539.6c120.4-158.7-4-304.3 288.1-331C880.9 187.1 912.3 361.1 960 524.5z" class="undefined"/><path class="st184" d="M962.1 524.5C1030 765 756.9 934.1 646.7 797.3 541.1 666.7 255.5 669.2 354.6 540c120.9-157.5-3.7-307.4 289.5-333.4C881.9 185.5 915.5 359.4 962.1 524.5z" class="undefined"/><path class="st185" d="M964.2 524.5c66.1 242.6-206.6 411.4-317.3 273.6C542 668.6 252.9 669.8 353.3 540.4c121.3-156.3-3.5-310.6 290.8-335.9C882.8 184 918.7 357.6 964.2 524.5z" class="undefined"/><path class="st186" d="M966.2 524.5c64.4 244.8-207.9 413.2-319.4 274.5C543 670.4 250.3 670.3 352 540.8c121.8-155.1-3.2-313.7 292.1-338.4C883.8 182.4 921.9 355.9 966.2 524.5z" class="undefined"/><path class="st187" d="M968.3 524.5c62.7 246.9-209.2 415-321.4 275.4 -103.1-127.7-399.3-129-296.3-258.7 122.3-153.9-3-316.9 293.4-340.9C884.7 180.9 925 354.1 968.3 524.5z" class="undefined"/><path class="st188" d="M970.4 524.5c61 249-210.6 416.8-323.4 276.3C544.8 674.1 245 671.4 349.3 541.6c122.7-152.7-2.7-320 294.8-343.4C885.7 179.3 928.2 352.4 970.4 524.5z" class="undefined"/><path class="st189" d="M972.5 524.5c59.3 251.2-211.9 418.6-325.4 277.2C545.8 675.9 242.4 672 348 542c123.2-151.6-2.5-323.2 296.1-345.9C886.6 177.8 931.4 350.6 972.5 524.5z" class="undefined"/><path class="st190" d="M974.5 524.5c57.5 253.3-213.2 420.4-327.4 278.1C546.7 677.7 239.8 672.5 346.7 542.4c123.6-150.4-2.2-326.3 297.4-348.3C887.6 176.2 934.6 348.9 974.5 524.5z" class="undefined"/><path class="st191" d="M976.6 524.5c55.8 255.5-214.5 422.2-329.4 278.9C547.6 679.6 237.2 673 345.4 542.8c124-149.2-2-329.5 298.7-350.8C888.5 174.7 937.8 347.1 976.6 524.5z" class="undefined"/><path class="st192" d="M978.7 524.5c54.6 257.5-215.9 424.1-331.4 279.8 -98.7-123-412.8-130.8-303.3-261.1 124.5-148.1-1.7-332.6 300.1-353.3C889.5 173.1 941.4 345.3 978.7 524.5z" class="undefined"/><path class="st193" d="M980.8 524.5c52.8 259.7-217.2 425.9-333.4 280.7 -97.9-122-415.5-131.2-304.7-261.6 124.9-146.9-1.5-335.8 301.4-355.8C890.4 171.6 944.5 343.6 980.8 524.5z" class="undefined"/><path class="st194" d="M982.8 524.5c51 261.9-218.5 427.7-335.4 281.6 -97-121.1-418.2-131.6-306.1-262.1 125.3-145.8-1.2-338.9 302.7-358.3C891.4 170.1 947.7 341.9 982.8 524.5z" class="undefined"/><path class="st195" d="M984.9 524.5C1034.2 788.6 765 954 647.5 807c-96.1-120.1-421-131.9-307.4-262.5 125.7-144.6-1-342.1 304-360.8C892.3 168.5 950.8 340.2 984.9 524.5z" class="undefined"/><path class="st196" d="M987 524.5c47.4 266.2-221.2 431.3-339.4 283.4 -95.3-119.2-423.9-132.5-308.8-263 126-143.7-0.7-345.2 305.4-363.2C893.3 167 954 338.4 987 524.5z" class="undefined"/><path class="st51" d="M989.1 524.5c45.7 268.4-222.5 433.1-341.4 284.2C553.3 690.5 221.2 676 337.4 545.3c126.6-142.4-0.5-348.3 306.7-365.7C894.2 165.4 957.1 336.7 989.1 524.5z" class="undefined"/></svg>